<?xml version="1.0" encoding="UTF-8"?>
<!DOCTYPE svg PUBLIC "-//W3C//DTD SVG 1.1//EN" "http://www.w3.org/Graphics/SVG/1.1/DTD/svg11.dtd">
<!-- Creator: CorelDRAW 2018 (64 Bit Versión de evaluación) -->
<svg xmlns="http://www.w3.org/2000/svg" xml:space="preserve" width="35.9703mm" height="21.1808mm" version="1.1" style="shape-rendering:geometricPrecision; text-rendering:geometricPrecision; image-rendering:optimizeQuality; fill-rule:evenodd; clip-rule:evenodd"
viewBox="0 0 119.74 70.51"
 xmlns:xlink="http://www.w3.org/1999/xlink">
 <defs>
  <style type="text/css">
   <![CDATA[
    .fil4 {fill:#231916}
    .fil1 {fill:#4B8224}
    .fil6 {fill:#4D8426}
    .fil0 {fill:#649839}
    .fil5 {fill:#F8F8F5}
    .fil2 {fill:#FCFBFA}
    .fil3 {fill:#FEFDFD}
   ]]>
  </style>
 </defs>
 <g id="Capa_x0020_1">
  <metadata id="CorelCorpID_0Corel-Layer"/>
  <path class="fil0" d="M81.99 47.69c1.13,3.96 -2.3,4.08 -3.28,2.59 -1.4,-2.14 0.81,-3.62 3.28,-2.59zm-25.01 -2.14c3.34,-1.97 5.51,3.13 2.7,4.56 -3.28,1.67 -5.61,-2.84 -2.7,-4.56zm-35.64 -3.08c6.28,-2.67 9.43,7 3.65,9.09 -6.08,2.19 -9.79,-6.47 -3.65,-9.09zm64.91 -5.59c3.25,-2.24 5.51,2.88 2.85,4.38 -2.95,1.66 -5.95,-2.24 -2.85,-4.38zm-18.18 -1.1c1.01,0.6 1.69,1.3 2.56,2.14l3.11 -2.13c1.03,0.69 2.44,1.63 2.83,2.84 -1.15,-0.2 -2.02,-1.09 -2.83,-1.71 -1.36,0.55 -1.79,1.53 -3.24,2.03 -1.02,-0.98 -1.35,-1.6 -2.84,-2.07 -0.93,0.99 -1.3,1.38 -2.43,2.04 -1.37,-0.6 -1.5,-1.29 -2.84,-1.99 -1.57,0.73 -1.08,1.33 -2.94,1.8 0.35,-1.35 1.65,-2.35 2.94,-2.94 1.28,0.63 1.47,1.36 2.84,2 0.51,-0.34 0.85,-0.57 1.37,-0.98 0.82,-0.65 0.54,-0.6 1.47,-1.02zm17.25 -12.58c5.93,-1.57 7.87,7.47 2.18,8.66 -5.94,1.25 -7.63,-7.22 -2.18,-8.66zm-30.28 3.69l0.18 -2.47c1.77,-4.56 10.43,-1.74 8.18,4.21 -1.65,4.38 -9.46,4.36 -8.97,-2.88l0.62 1.13zm15.59 -0c0.04,-2.67 1.02,-3.27 3.31,-3.67l-0.77 -0.95c2.8,-0.18 4.62,0.47 5.62,2.45 3.42,6.76 -9.22,10.67 -8.81,1.32l0.65 0.85zm-10.73 -6.93c-0.4,-3.83 3.09,-3.63 3.69,-1.67 0.71,2.31 -1.48,3.23 -3.69,1.67zm-11.69 -17.47c0,3.44 2.94,3.13 4.96,1.77 2.52,1.69 5.6,5.16 6.38,8.5 -0.83,1.24 -4.87,3.95 -6.59,6.17 -2.1,2.69 -3.14,4.87 -4.9,7.85l-2.47 3.91c-1.1,1.6 -1.6,2.12 -2.95,3.43 -7.49,7.22 -21.35,4.13 -30,8.28 -8.56,4.11 -6.85,9.22 -8.56,10.58 -0.18,0.15 -2.01,0.75 -2.32,0.87 -0.84,0.35 -1.46,0.59 -1.76,1.43 1.43,0.66 2.57,-0.89 4.61,-1.06 0,3.37 -3.12,2.39 -3.9,5.31 1.19,-0.1 1.43,-0.42 2.19,-1 0.78,-0.59 1.29,-0.96 2.06,-1.48 0.75,1.12 1.78,2.26 2.13,3.54 -0.65,0.34 -1.13,0.55 -1.91,0.93 -1.33,0.64 -1.29,0.28 -1.64,1.55 2.86,-0.06 3.47,-1.77 4.61,-1.77 0.82,0 2.95,1.96 4.96,2.13 -0.24,0.89 -2.24,2.8 -1.77,3.27 0.86,0.86 2.63,-1.79 2.84,-2.56 1.4,0 1.44,0.11 2.48,0.35 -0.03,0.05 -4.05,3.8 -0.8,2.46 0.01,-0.01 0.79,-0.54 0.86,-0.59 0.65,-0.53 0.95,-0.89 1.36,-1.51 1.4,0.12 1.66,0.35 3.55,0.35 -0.31,1.32 -0.67,1.59 -0.71,3.19 1.4,-0.37 1.43,-1.36 1.77,-2.83 3.78,0 1.83,0.73 1.77,3.19 1.24,-0.33 1.81,-1.65 2.13,-2.83 1.61,0.04 2.79,0.35 4.96,0.35 -0.53,2.26 -1.3,1.4 -1.77,3.19 2.98,-0.25 1.69,-2.83 4.96,-2.83 2.5,0 -0.86,2.03 0,3.9 1.07,-0.72 1.79,-2.11 2.13,-3.54 7.8,0 2.44,0.86 3.55,3.54 1.43,-0.38 1.65,-1.76 1.77,-3.19 1.69,0 1.47,-0.24 2.84,-0.35 -0.19,0.81 -0.27,0.81 -0.35,1.77 3.03,-0.25 -0.08,-0.97 2.41,-2.19l3.26 -1.35 0 2.48c1.26,-0.34 0.93,-0.03 1.09,-1.39 0.06,-0.46 -0.03,-1.93 -0.03,-2.51 1.64,-0.86 1.44,-1.28 3.55,-1.77 -0.32,1.39 -1.6,3.45 -1.06,4.61 1.83,-1.23 1.27,-2.12 2.13,-3.9 1.7,1.14 1.63,2.73 0.31,4.21 -0.75,0.84 -0.9,0.36 -1.02,1.82 1.73,-0.14 2.2,-1.27 2.84,-2.48l2.37 1.17c0.86,0.37 0.99,0.01 1.53,2.01l1.06 0c-0.17,-2.1 -0.8,-1.49 -1.14,-2.69 -0.26,-0.9 0.39,-1.32 0.43,-2.98l0.71 0c0.13,1.58 0.75,2.5 1.77,3.19 0.62,-1.34 -3.02,-6.38 1.06,-6.38 1.38,0 1.1,1.15 1.07,2.47 -0.05,2.03 -0.48,2.43 1.05,2.84l0 -4.96c1.63,1.09 1.47,1.57 2.62,3.05 0.35,0.45 1.28,1.29 1.37,1.46 0.46,0.83 0.12,1.2 0.61,2.22 1.83,-1.34 -0.73,-1.77 3.55,-2.13 0.12,1.44 0.37,2.81 1.77,3.19 -0.03,-1.43 -0.43,-2.34 -0.71,-3.54 1.25,-0.29 1.82,-0.88 2.84,-1.42 0.18,0.76 0.31,1.4 0.54,2.29 0.4,1.55 0.09,1.2 1.23,1.96 0.71,-1.48 -0.66,-3.02 -0.71,-5.31 0.84,-0.45 1.21,-0.82 2.13,-1.06 0,1.7 0.35,1.64 0.35,2.83 0,2.02 -1.3,2.65 0.71,3.19 0.55,-2.36 0,-4.77 0,-7.09 1.68,-0.89 2.58,-0.94 4.61,-1.42 0,2.28 -0.35,3.19 -0.35,5.67 1.43,-0.38 0.82,-0.05 1.11,-1.37 0.63,-2.82 -0.89,-4.63 2.78,-3.98 2.36,0.42 2.78,-0 2.59,1.83 -0.18,1.73 -0.8,2.78 -0.11,4.23 1.66,-1.22 0.38,-2.95 1.26,-4.45 0.68,-1.18 3.32,0.32 3.76,1.21 0.53,1.08 0.43,3.73 1.75,3.8 1.16,0.07 -0.39,-1.92 -0.39,-4.1 1.03,0.24 2.16,0.47 3.19,0.71 0.43,1.85 2.35,5.19 4.61,4.25 -0.44,-1.66 -1.57,-0.52 -3.55,-4.25 7.08,0 4.1,2.74 8.15,2.83 -0.48,-1.79 -2.69,-1.66 -3.19,-3.54 1.08,-0.25 1.36,-0.55 2.13,-1.06 1.16,0.78 2.63,2.2 4.25,1.42 -0.64,-0.87 -2.19,-1.45 -3.19,-2.13 0.54,-1.01 1.13,-1.58 1.42,-2.83 1.69,0 5.16,-0.09 4.42,-1.99 -0.38,-0.99 -0.4,-0.23 -0.54,-0.17 -1.62,0.59 -0.08,1.09 -3.52,1.09 0,-10.74 -10.84,-6.21 -16.16,-19.63 -2.56,-6.46 -3.86,-13.4 -7.99,-18.94l-3.37 -3.36c-0.93,-0.74 -0.29,-0.61 -1.54,-0.94 0.31,-3.73 3.89,-7.54 6.38,-9.21 5.3,3.55 6.72,-4.25 2.48,-4.25 -2.56,0 -2.15,1.4 -2.89,2.78 -0.77,1.45 -6.25,2.37 -9.52,8.55 -9.6,-4.6 -16.94,-0.63 -20.21,-0.35 -3.04,-5.73 -8.16,-6.58 -9.02,-7.99 -0.41,-0.67 -0.12,-1.1 -0.82,-2.02 -0.89,-1.15 -2.91,-1.3 -3.99,-0.28 -0.52,0.49 -0.7,0.77 -0.7,1.78z"/>
  <path class="fil1" d="M21.34 42.47c-6.14,2.62 -2.44,11.28 3.65,9.09 5.79,-2.09 2.63,-11.76 -3.65,-9.09z"/>
  <path class="fil1" d="M85.32 23.2c-5.45,1.44 -3.75,9.91 2.18,8.66 5.68,-1.2 3.74,-10.23 -2.18,-8.66z"/>
  <path class="fil2" d="M55.21 24.42c1.23,-2.54 5.85,-1.69 5.73,1.78 -0.12,3.48 -5.24,4.16 -5.9,0.69l-0.62 -1.13c-0.49,7.24 7.32,7.26 8.97,2.88 2.25,-5.95 -6.41,-8.77 -8.18,-4.21z"/>
  <path class="fil3" d="M73.94 23.22c2.64,0.13 3.46,3.24 1.8,4.99 -1.72,1.81 -4.69,1.03 -5.11,-1.32l-0.65 -0.85c-0.41,9.36 12.23,5.44 8.81,-1.32 -1,-1.98 -2.82,-2.63 -5.62,-2.45l0.77 0.95z"/>
  <path class="fil4" d="M55.21 24.42l-0.18 2.47c0.67,3.47 5.78,2.79 5.9,-0.69 0.12,-3.47 -4.5,-4.32 -5.73,-1.78z"/>
  <path class="fil4" d="M70.63 26.89c0.42,2.34 3.39,3.13 5.11,1.32 1.66,-1.75 0.84,-4.86 -1.8,-4.99 -2.29,0.4 -3.27,1 -3.31,3.67z"/>
  <path class="fil1" d="M56.98 45.55c-2.91,1.72 -0.58,6.23 2.7,4.56 2.81,-1.43 0.64,-6.53 -2.7,-4.56z"/>
  <path class="fil1" d="M86.24 36.88c-3.1,2.14 -0.1,6.04 2.85,4.38 2.66,-1.5 0.4,-6.62 -2.85,-4.38z"/>
  <path class="fil5" d="M59.45 38.71c1.86,-0.48 1.37,-1.07 2.94,-1.8 1.34,0.71 1.46,1.4 2.84,1.99 1.13,-0.66 1.5,-1.04 2.43,-2.04 1.49,0.47 1.81,1.09 2.84,2.07 1.45,-0.5 1.88,-1.48 3.24,-2.03 0.8,0.62 1.67,1.51 2.83,1.71 -0.39,-1.21 -1.8,-2.14 -2.83,-2.84l-3.11 2.13c-0.87,-0.84 -1.56,-1.54 -2.56,-2.14 -0.93,0.42 -0.65,0.37 -1.47,1.02 -0.52,0.41 -0.86,0.64 -1.37,0.98 -1.36,-0.64 -1.56,-1.38 -2.84,-2 -1.29,0.59 -2.59,1.58 -2.94,2.94z"/>
  <path class="fil1" d="M81.99 47.69c-2.46,-1.03 -4.67,0.45 -3.28,2.59 0.97,1.49 4.4,1.37 3.28,-2.59z"/>
  <path class="fil6" d="M59.9 19.95c2.21,1.56 4.4,0.64 3.69,-1.67 -0.6,-1.96 -4.09,-2.15 -3.69,1.67z"/>
 </g>
</svg>
