<?xml version="1.0" encoding="UTF-8"?>
<!DOCTYPE svg PUBLIC "-//W3C//DTD SVG 1.1//EN" "http://www.w3.org/Graphics/SVG/1.1/DTD/svg11.dtd">
<!-- Creator: CorelDRAW 2018 (64 Bit Versión de evaluación) -->
<svg xmlns="http://www.w3.org/2000/svg" xml:space="preserve" width="27.2923mm" height="31.1151mm" version="1.1" style="shape-rendering:geometricPrecision; text-rendering:geometricPrecision; image-rendering:optimizeQuality; fill-rule:evenodd; clip-rule:evenodd"
viewBox="0 0 57.62 65.69"
 xmlns:xlink="http://www.w3.org/1999/xlink">
 <defs>
  <style type="text/css">
   <![CDATA[
    .fil5 {fill:#231916}
    .fil3 {fill:#5F9D8E}
    .fil0 {fill:#60B6C8}
    .fil1 {fill:#80CAD7}
    .fil2 {fill:#E68BA7}
    .fil4 {fill:#FCFBFA}
   ]]>
  </style>
 </defs>
 <g id="Capa_x0020_1">
  <metadata id="CorelCorpID_0Corel-Layer"/>
  <path class="fil0" d="M40.36 45.06c-1.41,-2.89 1.14,-5.21 1.93,-7.83 0.64,-2.12 -0.27,-3.02 -0.01,-4.81 0.27,-1.82 1.75,-1.89 2.65,-0.8 4.42,5.36 -0.5,14.38 -4.57,13.44zm-8.06 -21.49c3.48,-2.04 4.2,5.88 1.29,7.12 -3.47,1.47 -4.28,-5.37 -1.29,-7.12zm-14.18 -4.13l0.67 -1.44 0.44 0.44c-0.01,-0.48 -0.06,-0.13 0.05,-0.62 0.01,-0.06 0.14,-0.22 0.15,-0.34 0.01,-0.09 0.07,-0.1 0.1,-0.15 0.25,-0.96 0.75,-1.59 2.11,-1.5 0.22,0.38 0.54,0.77 0.19,1.42 -0.25,0.45 -0.64,0.82 -1.2,0.7l-0.15 0.82 -1.1 -0.06 0.81 0.48c-0.5,1.12 -0.29,1.27 -1.57,1.43 -0.53,0.45 -0.47,0.33 0.33,0.94 0.24,0.19 0.9,0.53 1.25,0.71 0.7,0.34 1.82,0.95 2.33,0.81 -1.01,-3.63 1.15,-2.32 2.08,-2.23l-1.41 -1.67c0.46,-2.01 6.02,-9.41 7.79,-5.04 2,4.92 -0.71,8.72 -5.13,9.34 -0.6,0.3 -1.54,0.18 -2.36,0.18 0.31,0.4 -0.01,0.01 0.38,0.43l2.56 2.26c-0.22,3.63 -1.48,5.02 0.76,8.36 1.34,2.01 3.09,3.82 4.13,6.06 -0.36,0.95 -0.91,1.37 -1.46,2.25 -1.76,2.81 0.28,2.54 -3.39,3.83 -0.84,0.3 -1.68,0.55 -2.23,1.15l2.37 0.03c0.14,1.03 -1.14,2.55 -1.68,3.26 -0.93,1.24 -1.83,1.7 -3.37,0.96 0.12,2.39 1.05,4.19 2.35,5.14 1.94,1.42 3.49,1.11 6.15,1.08 -0.66,-0.51 -2.01,-1.68 -2.1,-3.09 -0.11,-1.74 1.32,-1.97 2.73,-2.41 3.07,-0.96 6.78,-1.64 5.55,3.04 0.77,-0.74 1.38,-1.21 1.88,-2.08 0.76,-1.34 0.44,-1.7 0.84,-2.99 0.33,-1.07 1.33,-1.02 2.07,-1.79 0.48,-0.51 0.99,-1.65 1.45,-2.39 1.91,-3 4.93,-5.61 6.18,-8.94 1.89,-5.04 -1.27,-7.33 -1.88,-8.57 -0.45,-0.94 -0.18,-2.43 -0.3,-3.54 -2.11,-19.26 -34.17,-21.26 -37.84,-10.6 -0.88,2.55 0.8,4.19 3.29,3.77 0.99,-0.17 3.38,-2.69 4.13,-3.3 0.62,0.6 1.33,3.45 1.54,4.27l0.5 -0.44z"/>
  <path class="fil1" d="M36.27 56.04c-1.66,1.75 -3.06,3.45 -6.19,2.45 -2.67,0.03 -4.21,0.35 -6.15,-1.08 -1.3,-0.95 -2.23,-2.75 -2.35,-5.14 -0.47,-2.4 0.29,-3.57 2.67,-4.25 0.56,-0.61 1.39,-0.86 2.23,-1.15 3.66,-1.29 1.62,-1.03 3.39,-3.83 0.55,-0.88 1.1,-1.3 1.46,-2.25 -1.04,-2.24 -2.79,-4.06 -4.13,-6.06 -2.23,-3.34 -0.98,-4.73 -0.76,-8.36l-2.56 -2.26c-0.39,-0.42 -0.07,-0.04 -0.38,-0.43 0.82,0 1.76,0.12 2.36,-0.18 -1.41,0.14 -2.34,0.04 -3.33,-0.39 -0.51,0.14 -1.63,-0.47 -2.33,-0.81 -0.35,-0.17 -1,-0.52 -1.25,-0.71 -0.8,-0.62 -0.86,-0.49 -0.33,-0.94 -0.04,-0.05 -0.11,-0.11 -0.13,-0.15 -0.53,-0.76 -0.36,-0.6 -0.36,-1.03l-0.5 0.44c-0.21,-0.82 -0.92,-3.67 -1.54,-4.27 -0.74,0.61 -3.13,3.13 -4.13,3.3 -2.49,0.42 -4.17,-1.22 -3.29,-3.77 3.67,-10.66 35.73,-8.66 37.84,10.6 0.12,1.11 -0.15,2.6 0.3,3.54 0.6,1.25 3.76,3.53 1.88,8.57 -1.25,3.33 -4.28,5.94 -6.18,8.94 -0.46,0.73 -0.97,1.88 -1.45,2.39 -0.74,0.77 -1.75,0.71 -2.07,1.79 -0.39,1.29 -0.08,1.65 -0.84,2.99 -0.49,0.87 -1.1,1.35 -1.88,2.08zm-3.62 -48.85c-0.95,-0.22 -2.13,-0.64 -3.12,-0.72l0.24 -4.32c0,-1.05 -0.29,-1.08 -0.96,-1.44 -0.68,1.01 -0.24,1.25 -0.24,3.84 0,0.83 -0.18,0.93 -0.24,1.68 -1.52,0 -2,-0.24 -3.6,-0.24 -0.53,-1.01 -0.88,-1.79 -1.37,-2.95 -0.33,-0.77 -0.92,-2.81 -1.75,-2.81 -0.94,0 -0.66,0.55 -0.45,1.12l2.13 4.64c-4.24,0 -5.32,0.48 -8.29,-2.75 -0.79,-0.86 -0.81,-1.53 -2.27,-1.57 0.05,2.41 2.79,3.22 3.84,4.8 -1.65,0.04 -4.93,1.65 -5.45,1.56 -0.6,-0.1 -1.52,-1.19 -1.94,-1.62 -0.2,-0.2 -0.27,-0.26 -0.46,-0.5 -0.69,-0.86 -0.52,-1.1 -1.76,-1.12 0,1.32 0.5,1.45 1.33,2.51 0.75,0.95 1.01,0.77 1.55,1.57 -0.74,1.11 -2.3,2.4 -3.84,2.4 -1.81,0 -3.14,-0.48 -5.04,-0.48 0.03,1.52 0.59,1.29 2.16,1.44 1.26,0.12 1.84,0.24 3.36,0.24 -0.19,0.84 -0.48,1.32 -0.67,1.97 -0.87,2.94 0.15,1.49 -4.48,4.16 -2.22,1.28 -1.4,2.4 0.49,1.22 1.29,-0.8 2.4,-1.38 3.7,-2.07 0.43,0.89 0.83,2.35 1.92,2.64 -0.43,1.62 -1.75,1.11 -2.16,2.64l0.53 0.43c0.82,-0.18 2.38,-1.44 2.83,-2.11 4.43,1.03 3.71,0.35 5.76,-0.29 1.68,-0.53 0.28,0.89 -0.22,1.26 -0.94,0.69 -3.32,1.75 -3.62,2.87 1.11,0.63 2.22,-0.36 3.27,-1.05 0.92,-0.61 1.28,-1.1 2.01,-1.59 0.94,0.69 1.49,1.83 2.88,2.16 -0.86,1.17 -2.24,0.91 -2.64,2.4 0.7,0.59 0.78,0.42 1.75,-0.15 1.39,-0.81 2.01,-1.87 3.61,-0.9 0.9,0.55 0.84,0.76 1.84,1.29 -0.14,0.62 -0.13,0.96 -0.6,1.32 -0.86,0.66 -2.6,0.74 -3.51,0.81 -1.28,0.1 -1.08,-0.27 -1.65,0.51 0.26,0.97 1.01,0.72 1.92,0.72 2,0 3.6,-1.63 3.6,0.48 0,0.86 -0.91,1.03 -1.56,1.32 -1.15,0.51 -2.88,0.83 -3,2.28 1.34,0.28 3.54,-1.07 4.8,-1.68 0.37,1.6 1.57,2.81 1.92,4.32 -0.91,0.08 -3.28,1.34 -2.43,2.18 0.78,0.78 1.71,-1.18 3.63,-1.22 0.19,0.7 0.57,0.93 0.96,1.68 -1.49,0.35 -4.18,-0.24 -4.32,1.44 1,0.48 2.76,0 4.32,0 -0.61,1.15 -0.99,2.87 -2.64,2.78 -1.37,-0.08 -2.12,-1.97 -3.36,-2.3l-0.43 0.53c0.46,1.86 1.77,1.54 2.11,2.83 -1.06,0.28 -1.38,0.92 -2.16,1.44 -2.16,-0.5 -4.24,-2.16 -4.56,-2.16 -0.92,0 -0.09,-0.07 -0.72,0.24 0.43,1.62 2.71,2.74 4.32,2.88 -0.35,1.49 -1.2,2.15 -1.2,4.32l-3.6 0c0.04,1.85 1.32,1.2 3.6,1.2 0.02,0.84 0.25,1.59 0.44,2.2 0.31,0.96 0.67,1.08 0.76,2.12 -0.57,0.3 -1.07,0.61 -1.84,0.8 -1.36,0.34 -1.49,-0.22 -1.52,1.36 1.51,0 2.95,-0.22 4.08,-1.2 1.12,0.75 1.91,1.82 3.36,2.16 -0.25,0.93 -1.18,1.36 -1.92,1.92 -0.85,0.64 -1.82,0.97 -1.92,2.16 1.42,0.3 3.04,-1.21 4.02,-2.22 1.7,-1.74 2.03,-1.14 5.82,-1.14 -0.15,1.76 -1.54,2.4 -1.92,3.84l0.53 0.43c1.42,-0.32 2.71,-3.07 2.83,-4.51 1.12,-0.26 2.59,-0.88 3.6,-0.96 -0.79,1.65 -0.92,2.26 0,2.88 0.99,-0.66 1.2,-1.94 1.2,-3.6 1.19,-0.63 2.82,-2.37 3.84,-2.64 0.2,0.86 0.66,1.52 0.94,2.42 0.37,1.21 0.07,1.71 0.98,2.38 1.65,-1.11 -0.37,-4.25 -1.09,-5.65 -0.63,-1.23 -0.24,-0 0.45,-2.18 0.2,-0.63 0.14,-0.76 0.39,-1.29 0.95,0.63 2.54,3.52 3.49,3.01 0.96,-0.52 -0.24,-1.48 -0.68,-1.98 -0.59,-0.68 -1.15,-1.28 -1.85,-1.75 0.48,-0.72 1.47,-1.83 1.68,-2.64 2.08,0.17 2.39,2.12 4.32,2.16 -0.04,-1.88 -1.98,-2.63 -3.36,-3.36 0.25,-0.94 1.85,-2.83 2.64,-3.36 0.92,0.62 1.69,1.88 2.83,2.27 1.35,0.46 1.34,-0.5 0.6,-1.11 -0.98,-0.8 -1.98,-1.27 -2.71,-2.36 0.53,-0.79 1.41,-1.63 1.68,-2.64 1.28,0.86 2.59,3.01 4.32,2.64l0 -0.96c-0.64,-0.17 -1.39,-0.81 -1.86,-1.26 -0.65,-0.61 -1.03,-1.15 -1.74,-1.62 0.42,-0.88 0.58,-2.08 0.96,-2.88 2,0.17 3.26,0.72 5.52,0.72 -0.04,-1.79 -0.77,-1.06 -2.47,-1.37 -1.26,-0.23 -1.99,-0.54 -3.05,-0.79 0,-1.79 0.12,-2.34 -0.48,-3.6 1.85,0 3.07,-0.12 4.56,-0.24l0 -0.96c-1.19,-0.57 -3.49,0.44 -4.84,-0.2 -1.12,-0.53 -1.88,-2.55 -1.88,-3.88 2.08,0 3.63,-0.33 5.28,-0.72l0 -0.96c-1.2,-0.28 -3.19,0.24 -4.8,0.24 -1.07,0 -1.06,-2.8 -1.44,-3.6 0.97,-0.23 1.89,-0.39 2.98,-0.62 1.67,-0.36 2.03,0.01 2.06,-1.54 -1.66,0 -4.05,0.62 -5.52,0.96 -0.35,-1.49 -1.5,-2.83 -2.16,-4.08 1.02,-0.08 1.77,-0.51 2.83,-0.77 1,-0.25 2.11,-0.13 2.21,-1.39 -1.03,-0.86 -4.88,0.94 -6,1.2 -0.63,-0.94 -1.84,-1.45 -2.16,-2.64 3.34,-1.76 4.44,-0.96 4.56,-2.4 -1.77,-0.99 -4.51,1.02 -5.76,1.68l-3.12 -2.16c0.75,-1.12 2.02,-2.27 3.07,-3.17 0.57,-0.49 1.01,-0.46 1.01,-1.15 0,-2.06 -2.31,0.76 -2.6,1 -1.04,0.83 -1.82,2.03 -2.68,2.6 -1.15,-0.27 -2.09,-1.09 -3.36,-1.2 0.06,-2.85 1.92,-4.34 1.92,-7.68 -1.72,0.04 -1.05,1.1 -1.89,3.15 -0.49,1.19 -1.24,2.53 -1.24,4.04z"/>
  <path class="fil2" d="M22.53 23.09c0.99,0.43 1.92,0.54 3.33,0.39 4.42,-0.61 7.13,-4.42 5.13,-9.34 -1.78,-4.37 -7.34,3.04 -7.79,5.04l1.41 1.67c-0.93,-0.09 -3.09,-1.4 -2.08,2.23z"/>
  <path class="fil3" d="M40.36 45.06c4.07,0.94 8.99,-8.08 4.57,-13.44 -0.9,-1.09 -2.39,-1.02 -2.65,0.8 -0.26,1.79 0.64,2.69 0.01,4.81 -0.79,2.62 -3.34,4.94 -1.93,7.83z"/>
  <path class="fil3" d="M30.08 58.49c3.12,1 4.52,-0.71 6.19,-2.45 1.23,-4.68 -2.48,-4 -5.55,-3.04 -1.42,0.44 -2.84,0.67 -2.73,2.41 0.09,1.4 1.44,2.58 2.1,3.09z"/>
  <path class="fil3" d="M32.3 23.57c-2.99,1.75 -2.17,8.59 1.29,7.12 2.9,-1.23 2.18,-9.16 -1.29,-7.12z"/>
  <path class="fil3" d="M21.58 52.27c1.54,0.74 2.43,0.28 3.37,-0.96 0.54,-0.71 1.82,-2.23 1.68,-3.26l-2.37 -0.03c-2.38,0.69 -3.14,1.86 -2.67,4.25z"/>
  <path class="fil4" d="M19.54 17.33l0.78 0.03 0.32 0.59c0.56,0.12 0.96,-0.25 1.2,-0.7 0.36,-0.65 0.03,-1.04 -0.19,-1.42 -1.37,-0.09 -1.86,0.54 -2.11,1.5z"/>
  <path class="fil4" d="M18.13 19.44c0.01,0.43 -0.16,0.27 0.36,1.03 0.03,0.04 0.09,0.1 0.13,0.15 1.28,-0.16 1.08,-0.32 1.57,-1.43l-0.81 -0.48 -0.15 -0.27 -0.44 -0.44 -0.67 1.44z"/>
  <path class="fil5" d="M19.24 18.45l0.15 0.27 1.1 0.06 0.15 -0.82 -0.32 -0.59 -0.78 -0.03c-0.03,0.05 -0.09,0.06 -0.1,0.15 -0.01,0.12 -0.13,0.28 -0.15,0.34 -0.12,0.5 -0.06,0.14 -0.05,0.62z"/>
 </g>
</svg>
