<?xml version="1.0" encoding="UTF-8"?>
<!DOCTYPE svg PUBLIC "-//W3C//DTD SVG 1.1//EN" "http://www.w3.org/Graphics/SVG/1.1/DTD/svg11.dtd">
<!-- Creator: CorelDRAW 2018 (64 Bit Versión de evaluación) -->
<svg xmlns="http://www.w3.org/2000/svg" xml:space="preserve" width="34.6267mm" height="32.2428mm" version="1.1" style="shape-rendering:geometricPrecision; text-rendering:geometricPrecision; image-rendering:optimizeQuality; fill-rule:evenodd; clip-rule:evenodd"
viewBox="0 0 87.88 81.83"
 xmlns:xlink="http://www.w3.org/1999/xlink">
 <defs>
  <style type="text/css">
   <![CDATA[
    .fil4 {fill:#4F233D}
    .fil8 {fill:#66582B}
    .fil5 {fill:#6B7F3F}
    .fil7 {fill:#6E753B}
    .fil6 {fill:#873937}
    .fil11 {fill:#9B827A}
    .fil9 {fill:#9E847C}
    .fil10 {fill:#9F857D}
    .fil3 {fill:#B8A39D}
    .fil0 {fill:#B9A5A0}
    .fil2 {fill:#DB4375}
    .fil1 {fill:#DB4A7A}
   ]]>
  </style>
 </defs>
 <g id="Capa_x0020_1">
  <metadata id="CorelCorpID_0Corel-Layer"/>
  <path class="fil0" d="M30.6 27.19l6.48 -1.54c0.7,-0.32 -0.2,-0.38 0.73,-0.08 0.73,0.23 0.1,-0 0.86,0.71 1.2,-0.09 7.17,-1.38 8.37,-1.72 1.81,2.68 4.94,2.44 5.56,5.69 0.68,3.62 -2.74,3.45 3.19,6.35 -1.94,-6.28 2.54,-7.33 6.33,-4.41 0.41,4.36 -0.87,6.31 -5.39,5.32 0.3,0.59 1.95,3.91 2.36,4.38 0.99,1.15 2.3,1.37 3.47,2.51 1.68,1.64 3.86,5.99 1.87,8.99 -1.16,3.7 -4.01,4.21 -8.52,5.39 -0.26,2.69 -1.68,5.03 -4.77,4.09 -2.63,-0.8 -2.68,-3.28 -3.02,-6.54 -2.43,-3.42 -4.04,-1.73 -5.56,-7.31l-3.93 -0.79c-5.54,-0.04 -9.41,-3.62 -10.97,-7.4l-3.78 -0.45 -0.33 -3.38c1.09,-0.97 1.55,-1.31 3.07,-1.6 0.98,-4.02 2.42,-3.39 3.03,-5.83 -2.57,1.03 -3.87,1.31 -6.22,0.01 -2.09,-7.28 6.69,-8.63 7.17,-2.39zm-21.87 12.63c0,8.47 5.74,7.38 12.94,13.26 15.62,12.74 11.31,16.39 29.61,18.96 9.93,1.39 12.36,2.36 17.82,-4.62 14.03,-17.95 13.94,-12.49 1.32,-28.68 -7.79,-9.99 -8.64,-11.65 -13.41,-23.15 -1.95,-4.7 -2.01,-6.86 -6.78,-6.86 -10.52,0 -19.06,3.21 -26.9,9.11 -6.59,4.96 -10.72,6.74 -13.02,14.27 -0.61,2 -1.56,5.07 -1.56,7.71z"/>
  <path class="fil1" d="M38.67 26.29c1.68,2.93 2.77,6.31 5.92,7.65 2.55,1.09 3.32,0.5 4.57,2.58 0.91,1.51 0.96,3.22 2.19,4.82 0.48,-0.72 0.69,-1 1.1,-2.01 0.2,-0.49 0.18,-0.7 0.41,-1.18 0.41,-0.85 0.27,-0.52 0.63,-0.92 1.47,1.15 2.4,1.08 2.12,3.67 -2.36,0.84 -1.79,0.13 -3.45,1.64 0.87,1.26 0.15,0.53 1.51,1.43 0.36,0.24 1.25,0.61 1.79,0.93 2.24,1.35 1.33,1.58 3.75,2.54l-0.98 -2.95c2.53,0.44 3.98,1.76 3.41,5.17 1.5,1.08 2.23,1.48 2.76,3.73 1.99,-3 -0.2,-7.36 -1.87,-8.99 -1.17,-1.14 -2.47,-1.36 -3.47,-2.51 -0.41,-0.47 -2.06,-3.79 -2.36,-4.38l-0.94 -0.91c-5.93,-2.9 -2.5,-2.73 -3.19,-6.35 -0.61,-3.25 -3.74,-3.01 -5.56,-5.69 -1.2,0.34 -7.18,1.63 -8.37,1.72z"/>
  <path class="fil2" d="M43.55 48.81c2.94,0.12 4.8,0.47 6.67,-1.13l0.6 0.87c2.38,3.33 1.25,0.35 2.05,2.73 -1.45,1.03 -4.03,0.75 -5.98,0.62 -2.82,-0.19 -2.56,-0.4 -3.34,-3.09zm-5 -5.73c1.21,-1.05 0.48,-0.53 1.93,-1.18l-1.2 -1.54c0.59,-2.19 0.55,-2.36 2.76,-2.76 1.57,1.55 1.58,2.08 1.77,4.55 1.08,0.82 1.35,1.25 1.93,2.52l3.09 -1.17 -2.24 4.53 -1.9 0.1 -1.14 0.68 -0.99 0.21c1.52,5.57 3.13,3.89 5.56,7.31l0.62 0c0.5,-1.68 0.73,-1.78 2.93,-1.92 0.34,-0.45 2.37,-2.9 2.51,-3.03 1.25,-1.12 -0.18,-0.15 1.77,-0.96 1.29,-0.53 0.53,0.13 1.94,-0.88 -1.75,-3.62 -6.27,-3.1 -8.94,-7.36 -1.52,-2.42 -1.38,-3.28 -3.72,-4.43 -3.46,-1.69 -2.9,-0.29 -5.13,-3.04l-4.35 0.5c-1.9,4.96 0.92,5.43 2.82,7.87z"/>
  <path class="fil3" d="M28.2 35.61c0.88,2.16 0.81,1.81 0.18,4.07 1.12,1.15 0.85,1.21 1.7,2.29 0.57,0.72 1.61,1.71 2.14,2.21 1.46,1.41 3.23,2.25 6.08,2.5l0.26 -3.59c-1.9,-2.43 -4.72,-2.9 -2.82,-7.87l4.35 -0.5 -1.42 -3.78c-2.35,-0.63 -1.08,-0.02 -2.22,-1.35 -1.9,-2.22 0.97,-0.82 -1.65,-1.91l-0.9 1.79c1.5,2.54 4,0.8 2.88,5.13 -3.45,1.15 -4.86,-1.3 -6.75,-2.36 -1.19,1.17 -1.34,1.16 -1.82,3.37z"/>
  <path class="fil4" d="M38.66 30.94l1.42 3.78c2.24,2.75 1.67,1.35 5.13,3.04 2.35,1.15 2.2,2.01 3.72,4.43 2.67,4.25 7.19,3.74 8.94,7.36 1.53,0.68 1.79,1.29 3.5,2.2 0.43,0.26 0.69,0.49 1.15,0.78 1.01,0.64 0.48,0.59 1.9,0.87 -0.53,-2.25 -1.27,-2.64 -2.76,-3.73l-2.44 -2.22c-2.42,-0.96 -1.52,-1.19 -3.75,-2.54 -0.54,-0.33 -1.43,-0.69 -1.79,-0.93 -1.37,-0.9 -0.64,-0.18 -1.51,-1.43 -0.71,-0.26 -0.55,0.96 -0.73,-0.33l-0.08 -0.88c-1.23,-1.6 -1.28,-3.32 -2.19,-4.82 -1.25,-2.08 -2.02,-1.49 -4.57,-2.58 -3.15,-1.34 -4.24,-4.72 -5.92,-7.65 -0.77,-0.72 -0.14,-0.48 -0.86,-0.71 -0.93,-0.3 -0.03,-0.25 -0.73,0.08l1.58 5.28z"/>
  <path class="fil2" d="M30.6 27.19l-0.96 2.38c-0.61,2.43 -2.05,1.81 -3.03,5.83l1.59 0.2c0.48,-2.21 0.63,-2.2 1.82,-3.37 1.89,1.06 3.3,3.51 6.75,2.36 1.12,-4.33 -1.38,-2.6 -2.88,-5.13l0.9 -1.79c2.62,1.09 -0.25,-0.31 1.65,1.91 1.15,1.34 -0.13,0.72 2.22,1.35l-1.58 -5.28 -6.48 1.54z"/>
  <path class="fil0" d="M51.66 54.41c2.09,0.58 2.51,1.1 3.91,2.23 4.06,-0.18 5.28,-0.93 5.81,-4.9 -1.71,-0.91 -1.97,-1.52 -3.5,-2.2 -1.4,1.01 -0.65,0.35 -1.94,0.88 -1.95,0.81 -0.52,-0.16 -1.77,0.96 -0.14,0.12 -2.17,2.58 -2.51,3.03z"/>
  <path class="fil5" d="M29.64 29.58l0.96 -2.38c-0.49,-6.24 -9.26,-4.88 -7.17,2.39 2.35,1.3 3.65,1.02 6.22,-0.01z"/>
  <path class="fil6" d="M38.55 43.08l-0.26 3.59 0.33 1.57 3.93 0.79 0.99 -0.21 1.14 -0.68 1.05 -3.45c-0.58,-1.27 -0.85,-1.7 -1.93,-2.52l-3.33 -0.26c-1.44,0.65 -0.72,0.13 -1.93,1.18z"/>
  <path class="fil5" d="M55.79 36.61l0.94 0.91c4.52,0.99 5.81,-0.96 5.39,-5.32 -3.8,-2.92 -8.27,-1.87 -6.33,4.41z"/>
  <path class="fil5" d="M55.9 58.79c-2.67,0.18 -6.28,-0.2 -7.17,-2.46l-0.62 0c0.34,3.27 0.39,5.75 3.02,6.54 3.09,0.94 4.52,-1.4 4.77,-4.09z"/>
  <path class="fil3" d="M43.55 48.81c0.78,2.68 0.52,2.9 3.34,3.09 1.95,0.13 4.53,0.41 5.98,-0.62 -0.8,-2.38 0.33,0.6 -2.05,-2.73l-0.6 -0.87c-1.86,1.6 -3.73,1.26 -6.67,1.13z"/>
  <path class="fil7" d="M27.66 40.84c0.41,-0.97 -0.25,-0.34 0.72,-1.17 0.63,-2.26 0.7,-1.91 -0.18,-4.07l-1.59 -0.2c-1.52,0.29 -1.98,0.63 -3.07,1.6l0.33 3.38 3.78 0.45z"/>
  <path class="fil8" d="M48.73 56.34c0.89,2.26 4.51,2.64 7.17,2.46l-0.33 -2.15c-1.4,-1.13 -1.82,-1.66 -3.91,-2.23 -2.2,0.15 -2.43,0.25 -2.93,1.92z"/>
  <path class="fil2" d="M55.57 56.65l0.33 2.15c4.51,-1.18 7.36,-1.69 8.52,-5.39 -1.42,-0.28 -0.89,-0.23 -1.9,-0.87 -0.47,-0.3 -0.72,-0.52 -1.15,-0.78 -0.53,3.97 -1.75,4.72 -5.81,4.9z"/>
  <path class="fil1" d="M27.66 40.84c1.56,3.78 5.43,7.36 10.97,7.4l-0.33 -1.57c-2.84,-0.25 -4.61,-1.09 -6.08,-2.5 -0.53,-0.51 -1.57,-1.5 -2.14,-2.21 -0.85,-1.08 -0.58,-1.14 -1.7,-2.29 -0.97,0.83 -0.31,0.2 -0.72,1.17z"/>
  <path class="fil9" d="M36.02 76.37c1.17,1.59 0.35,0.67 2.18,1.64 1.03,-1.95 2.51,-4.43 2.73,-7.09 -2.52,0.21 -1.69,0.45 -2.57,2.34 -0.79,1.71 -1.36,1.65 -2.34,3.11z"/>
  <path class="fil3" d="M40.48 41.9l3.33 0.26c-0.19,-2.47 -0.2,-3.01 -1.77,-4.55 -2.21,0.4 -2.17,0.57 -2.76,2.76l1.2 1.54z"/>
  <path class="fil9" d="M25.11 58.92c-1.23,0.77 -2.13,1.73 -3.2,2.86 -1.24,1.32 -1.92,3.15 0.43,2.12 0.65,-0.28 2.61,-2.26 3.23,-2.92 1.51,-1.6 1.79,-3.47 -0.47,-2.06z"/>
  <path class="fil9" d="M56.77 12.55c2.02,-0.17 2.41,-0.67 4.01,-1.44 2.16,-1.05 2.33,-0.42 2.54,-2.92 -2.02,0.17 -2.41,0.67 -4.01,1.44 -2.16,1.05 -2.33,0.42 -2.54,2.92z"/>
  <path class="fil9" d="M75.87 43.1l1.17 1.57c7.56,-4.97 5.82,-7.63 2.24,-4.17 -1.39,1.34 -1.9,1.6 -3.41,2.6z"/>
  <path class="fil9" d="M9.28 32.19l0 -1.64c-2.15,-0.5 -4.85,-1.45 -7.1,-1.64 0.2,2.38 0.23,1.95 2.48,2.43 1.53,0.33 3.26,0.73 4.62,0.84z"/>
  <path class="fil9" d="M78.05 46.37c1.79,1.49 2.92,-0.69 4.27,-1.74 0.85,-0.66 3.14,-1.48 1.87,-2.76 -1.07,-1.06 -1.92,0.65 -3.08,1.54 -1.64,1.26 -1.94,1.29 -3.05,2.95z"/>
  <path class="fil9" d="M79.69 55.1c0.67,2.51 6.34,4.29 6.75,3.88 2.1,-2.1 -5.4,-3.85 -6.75,-3.88z"/>
  <path class="fil9" d="M40.39 79.1c2.18,-0.18 2.06,-0.37 2.53,-2.38 0.36,-1.55 0.71,-3.23 0.74,-4.71l-1.64 0c-0.24,2.83 -1.42,4.5 -1.64,7.09z"/>
  <path class="fil9" d="M-0 41.46l5.46 0c1.51,0 1.31,-0.42 1.64,-1.64 -3.11,0 -3.78,-0.55 -7.1,-0.55l0 2.18z"/>
  <path class="fil9" d="M67.68 18.55c-1.35,-1.84 -1.03,-1.06 -3.27,-0.01 -1.34,0.62 -3.62,0.86 -3.68,2.24 -0.08,1.92 3.29,-0.15 5.01,-0.89 1.88,-0.82 0.8,0.22 1.94,-1.33z"/>
  <path class="fil3" d="M51.35 41.34l0.08 0.88c0.18,1.29 0.02,0.07 0.73,0.33 1.66,-1.5 1.09,-0.8 3.45,-1.64 0.27,-2.59 -0.65,-2.52 -2.12,-3.67 -0.36,0.4 -0.22,0.07 -0.63,0.92 -0.23,0.47 -0.21,0.68 -0.41,1.18 -0.41,1.01 -0.62,1.29 -1.1,2.01z"/>
  <path class="fil9" d="M40.94 8.73c-0.17,-2 -0.58,-5.92 -2.18,-7.09 -1.33,0.96 -0.88,0.76 -0.33,3.59 0.58,2.98 -0.39,3.26 2.51,3.5z"/>
  <path class="fil9" d="M30.57 72.55c0,2.09 -0.17,0.2 0.55,1.64 1.24,-0.83 2.06,-1.64 3.06,-2.94 1.52,-1.98 2.15,-1.78 1.31,-3.6 -0.78,0.52 -4.91,4.11 -4.91,4.91z"/>
  <path class="fil9" d="M3.27 25.64c0.67,2.51 5.41,4.05 7.1,3.27 -1.36,-2.03 -0.98,-1.25 -3.19,-2.27 -1.14,-0.53 -2.78,-2.28 -3.91,-1z"/>
  <path class="fil9" d="M63.32 27.28l0.63 1.06c1.79,-0.47 5.49,-2.88 6.47,-4.34 -2.36,-1.09 -6.45,2.39 -7.1,3.27z"/>
  <path class="fil9" d="M10.37 56.19l1.17 0.3c1.25,-0.63 3.74,-5.11 3.74,-5.21 0,-2.09 0.17,-0.2 -0.55,-1.64 -1.97,1.32 -3.22,4.38 -4.37,6.55z"/>
  <path class="fil9" d="M47.49 80.19l1.64 0c0.19,-2.3 1.04,-4.66 1.09,-7.09l-1.64 0c-0.45,1.94 -1.09,4.77 -1.09,7.09z"/>
  <path class="fil9" d="M73.14 75.83l1.17 -1.57c-2.9,-1.97 -5.09,-4.55 -6.16,-3.48 -0.79,0.79 1.04,1.98 1.94,2.65 1.38,1.03 1.86,1.61 3.06,2.4z"/>
  <path class="fil9" d="M54.04 8.18c2.42,-0.64 4.77,-5.28 3.89,-6.15 -2.17,-2.16 -3.85,5.61 -3.89,6.15z"/>
  <path class="fil9" d="M79.69 49.1c0.35,-0.03 8.95,-1.67 6.75,-3.88 -0.69,-0.68 -2.42,0.63 -3.47,1.15 -1.92,0.95 -2.73,0.67 -3.27,2.73z"/>
  <path class="fil9" d="M36.02 9.82c2.57,-0.69 1.66,-1.08 1,-3.71 -0.67,-2.67 0.25,-3.14 -2.63,-3.38 0.53,2.29 1.09,4.74 1.64,7.09z"/>
  <path class="fil9" d="M24.02 6.55c1.26,2.38 2.19,5.09 4.37,6.55 0.95,-2.05 -0.66,-3.18 -2.73,-7.09 -0.94,0.53 -1.08,0.32 -1.64,0.55z"/>
  <path class="fil9" d="M78.6 57.28c0.16,1.89 0.28,1.92 3.82,4.42 1.14,0.8 1.13,1.25 1.81,0.57 1.13,-1.13 -1.13,-2.33 -1.81,-2.82 -1.8,-1.3 -1.36,-1.97 -3.82,-2.18z"/>
  <path class="fil9" d="M44.21 79.65l1.64 0c0.18,-2.12 0.92,-4.97 1.09,-7.09 -2.45,0.2 -1.98,0.3 -2.22,2.69 -0.18,1.77 -0.51,2.34 -0.51,4.4z"/>
  <path class="fil9" d="M33.84 75.28c0,0.99 -0.03,0.06 0.55,1.09 1.72,-1.15 3.82,-5.36 3.82,-5.46 0,-2.09 0.17,-0.2 -0.55,-1.64 -0.94,0.68 -3.82,4.55 -3.82,6z"/>
  <path class="fil9" d="M7.64 54.55c2.71,-0.23 2.19,-0.82 3.3,-2.71 0.97,-1.66 1.99,-1.84 1.07,-3.84 -1.79,0.65 -3.96,4.8 -4.37,6.55z"/>
  <path class="fil9" d="M32.75 66.01c-1.59,0.52 -0.45,-0.2 -1.8,0.93 -4.06,3.39 -4.38,7.2 1.43,1.4 0.91,-0.91 1.68,-1.64 1.08,-2.31 -0.92,-1.03 -0.09,-0.21 -0.7,-0.01z"/>
  <path class="fil9" d="M63.86 73.65c-0.38,0.81 -0.37,-0.09 -0.1,1.15 0.49,2.26 1.53,2.91 1.74,5.4 3.11,-0.26 2.05,-0.68 1.03,-3.19 -0.32,-0.78 -0.57,-1.56 -1.02,-2.31 -0.27,-0.45 -0.24,-0.58 -0.69,-0.95 -1.74,-1.44 -0.45,-0.31 -0.95,-0.09z"/>
  <path class="fil9" d="M13.65 58.37c2.16,-0.58 2.38,-1.84 3.88,-4.36 0.85,-1.42 1.38,-1 0.55,-1.83 -1.44,-1.44 -2.22,1.15 -2.69,1.93 -0.96,1.58 -1.55,2.03 -1.74,4.26z"/>
  <path class="fil9" d="M65.5 31.09c2.23,-0.19 5.42,-2.68 6.55,-4.36 -1.9,-0.88 -2.19,-0.01 -3.82,1.09 -0.17,0.11 -1.68,1.04 -1.68,1.05 -1.61,1.3 -0.84,-0.23 -1.04,2.23z"/>
  <path class="fil9" d="M22.92 16.91c1.34,-1.61 -0.27,-2.58 -1.31,-4.15 -1.35,-2.04 -0.52,-2.19 -3.06,-2.4 0.19,2.31 3.17,5.74 4.37,6.55z"/>
  <path class="fil9" d="M78.05 70.37c-0.23,-2.79 -4.75,-5.87 -5.59,-5.04 -1.27,1.27 1.01,2.1 1.86,2.76 1.78,1.38 1.02,1.65 3.73,2.28z"/>
  <path class="fil9" d="M52.4 80.74c0.45,-1.94 1.09,-4.77 1.09,-7.09l-1.64 0c-0.12,1.42 -0.41,2.53 -0.72,4.26 -0.37,2.09 -1.32,2.15 1.26,2.84z"/>
  <path class="fil9" d="M57.86 15.27c2.98,-0.07 4.1,-1.48 7.1,-2.18 -0.56,-2.35 -0.69,-2.07 -4.56,-0.19 -2.09,1.01 -1.99,0.33 -2.54,2.37z"/>
  <path class="fil9" d="M59.5 18.55c1.52,-0.13 5.98,-1.76 7.1,-3.27 -1.6,-1.33 -3.4,0.13 -4.76,0.7 -1.9,0.79 -2.14,0.13 -2.34,2.57z"/>
  <path class="fil9" d="M0.55 43.64c0.22,2.67 0.83,2.05 2.92,1.32 0.97,-0.34 1.73,-0.49 2.51,-0.8 2.43,-0.97 1.11,-0.08 1.67,-1.61 -1.9,-0.79 -3.64,0.8 -7.1,1.09z"/>
  <path class="fil9" d="M27.84 5.46c0,2.3 1.62,3.59 2.18,6l1.64 0c-0.19,-2.23 -0.5,-1.87 -1.26,-3.65 -0.91,-2.12 -0.28,-2.18 -2.01,-3.45 -0.01,0.01 -0.55,1.02 -0.55,1.09z"/>
  <path class="fil9" d="M10.37 26.73c2.09,0 0.2,0.17 1.64,-0.55 -0.69,-0.94 -4.5,-3.89 -6.55,-4.36 0.05,2.22 0.24,2.09 3.26,3.84 0.67,0.39 1.27,1.07 1.66,1.07z"/>
  <path class="fil9" d="M32.75 10.37l1.64 0c-0.07,-3.27 -1.39,-4.08 -1.64,-7.09l-1.64 0c0.07,3.27 1.39,4.08 1.64,7.09z"/>
  <path class="fil9" d="M15.83 12.55c0.41,1.76 3.61,7.02 5,5.63 0.94,-0.94 0.54,-0.07 -0.34,-1.47 -1.98,-3.17 -2.61,-3.99 -4.66,-4.16z"/>
  <path class="fil10" d="M80.78 54.01c2.59,0.22 4.12,1.09 7.1,1.09 -0.19,-2.3 -0.29,-2.16 -2.7,-2.21 -2.67,-0.06 -2.31,-0.03 -4.4,-0.52l0 1.64z"/>
  <path class="fil9" d="M69.87 36.55c1.96,-0.16 6.87,-3.75 5.63,-5 -0.9,-0.9 -2.28,0.88 -3.04,1.59 -2,1.88 -2.36,0.63 -2.6,3.41z"/>
  <path class="fil9" d="M0.55 37.1c6.13,1.43 6.41,2.56 7.1,0 -2.16,-0.5 -4.85,-1.45 -7.1,-1.64l0 1.64z"/>
  <path class="fil9" d="M1.09 33.82c2.16,0.5 4.85,1.45 7.1,1.64l0 -1.64c-1.3,-0.3 -2.81,-0.7 -3.94,-1 -1.65,-0.44 -3.09,-1.26 -3.15,1z"/>
  <path class="fil9" d="M19.1 62.19c1.23,-0.83 2.05,-1.73 3.15,-2.85 1.32,-1.34 2.03,-1.93 1.21,-3.7 -1.24,0.83 -2.06,1.64 -3.06,2.94 -1.52,1.98 -2.15,1.78 -1.31,3.6z"/>
  <path class="fil9" d="M13.65 14.18c-0.76,1.65 0.53,2.91 2.39,5.28 1.37,1.74 3.99,2.31 0.57,-2.24 -0.52,-0.69 -0.55,-0.85 -1.15,-1.58 -1.24,-1.54 -0.16,-0.86 -1.81,-1.46z"/>
  <path class="fil11" d="M55.67 81.28c0.8,-1.67 1.41,-5.83 0.55,-7.64 -1.33,0.97 -1.33,1.91 -1.59,3.88 -0.43,3.25 -0.92,3.23 1.04,3.76z"/>
  <path class="fil10" d="M61.68 81.28l2.18 0c-0.19,-2.25 -1.14,-4.94 -1.64,-7.09l-1.09 0c0,3.31 0.55,4.37 0.55,7.09z"/>
  <path class="fil9" d="M25.65 68.74c2.41,-0.2 4.71,-2.97 6,-4.91 -1.09,-0.5 -0.28,-1.35 -3.61,1.3 -1.35,1.07 -2.22,2.01 -2.39,3.61z"/>
  <path class="fil9" d="M45.3 7.64l1.64 0 0 -2.18c0,-2.74 -0.49,-2.44 -0.55,-4.91l-1.64 0c0,3.11 0.55,3.77 0.55,7.09z"/>
  <path class="fil9" d="M20.74 53.46c-0.72,0.48 -6.07,5.65 -4.21,6.33 1.06,0.38 5.32,-3.92 4.21,-6.33z"/>
  <path class="fil9" d="M55.13 9.82c2.66,-0.22 0.74,0.1 2.1,-0.63 0.33,-0.18 1.32,-0.79 1.71,-1.02 2.75,-1.61 2.37,-1.32 2.74,-2.71 -1.64,-0.76 -2.23,0.2 -3.72,1.19 -1.62,1.08 -2.29,1.12 -2.83,3.17z"/>
  <path class="fil9" d="M72.05 39.28c1.93,-0.45 5.52,-3.1 6,-4.91 -2.09,-0.97 -1.49,-0.12 -3.5,1.4 -1.67,1.27 -2.29,1 -2.5,3.51z"/>
  <path class="fil9" d="M82.42 64.92c-0.28,-2.52 0.26,-0.74 -0.84,-1.89 -0.14,-0.15 -1.26,-1.05 -1.49,-1.24 -0.97,-0.78 -2.23,-1.73 -3.13,-2.33 -0.35,0.73 -0.79,0.83 -0.26,1.86 0.03,0.06 3.17,3.38 5.72,3.59z"/>
  <path class="fil9" d="M13.65 24c-1.3,-1.94 -3.6,-4.71 -6,-4.91 0.21,2.51 0.83,2.24 2.51,3.5 2.02,1.52 1.37,2.4 3.5,1.41z"/>
  <path class="fil9" d="M28.93 62.19c0,-2.09 0.17,-0.2 -0.55,-1.64 -0.64,0.43 -5.39,4.49 -5.11,5.39 0.63,2.02 5.66,-3.75 5.66,-3.75z"/>
  <path class="fil9" d="M48.58 7.64l1.64 0 0 -6c0,-1.51 -0.42,-1.31 -1.64,-1.64l0 7.64z"/>
  <path class="fil9" d="M61.68 24c2.58,1.24 4.4,-1.01 7.1,-1.64l0 -1.64c-2.23,0.19 -1.87,0.5 -3.65,1.26 -2.12,0.91 -2.18,0.28 -3.45,2.01z"/>
  <path class="fil9" d="M80.24 67.64c-0.23,-2.81 -0.41,-1.44 -2.32,-3.14 -4.41,-3.92 -5.12,-1.65 -1.5,0.96 1.8,1.3 1.36,1.97 3.82,2.18z"/>
  <path class="fil9" d="M15.83 22.37l-3.23 -4.95c-1.36,-1.6 0.38,-0.83 -2.22,-1.05 0.2,2.39 -0.1,0.83 0.62,2.11 1.03,1.84 2.62,3.71 4.84,3.89z"/>
  <path class="fil9" d="M70.41 78.56c1.1,-2.37 -2.6,-6.07 -4.37,-6.55 0.09,1.14 2.14,5.95 4.37,6.55z"/>
  <path class="fil9" d="M2.18 49.1c2.2,-0.18 6.01,-2.33 6.55,-4.36 -2.02,0.17 -2.41,0.67 -4.01,1.44 -2.16,1.05 -2.33,0.42 -2.54,2.92z"/>
  <path class="fil9" d="M74.23 42.01c1.71,-0.46 6.5,-4.09 5.54,-5.05 -1.17,-1.17 -0.9,-0.18 -1.58,0.17 -1.84,0.95 -3.78,2.79 -3.95,4.88z"/>
  <path class="fil9" d="M26.2 14.73c-0.22,-2.67 -2.36,-5.2 -4.37,-6.55 -1.1,2.37 2.6,6.07 4.37,6.55z"/>
  <path class="fil9" d="M43.67 8.18c0,-3.31 -0.55,-4.37 -0.55,-7.09l-1.64 0c0,5.54 0.11,6.54 2.18,7.09z"/>
  <path class="fil9" d="M4.37 51.82c0.77,0.37 0.81,0.75 1.85,0.24 0.03,-0.02 1.39,-1.54 1.57,-1.73 0.9,-0.98 1.84,-1.33 2.17,-2.63 0.73,-2.87 -5.12,2.39 -5.58,4.12z"/>
  <path class="fil9" d="M69.87 68.19c0.45,1.25 0.33,0.78 1.16,1.56 1.44,1.34 2.83,2.81 4.84,3.34 -0.22,-2.63 -4.78,-6.31 -6,-4.91z"/>
  <path class="fil9" d="M67.68 33.82c2.13,-0.18 1.91,-0.58 3.61,-1.85 1.4,-1.05 1.95,-1.37 2.4,-3.06 -1.86,0.15 -4.78,2.39 -5.27,2.92 -1.06,1.12 -0.53,-0.47 -0.73,1.99z"/>
  <path class="fil9" d="M51.85 7.64c1.13,-0.41 0.71,0.23 1.31,-0.87l0.87 -6.22 -1.64 0c-0.35,1.51 -1.1,5.75 -0.55,7.09z"/>
  <path class="fil9" d="M57.86 79.1l0 2.73 1.64 0 0 -7.64 -1.09 0c-0.05,2.47 -0.55,2.17 -0.55,4.91z"/>
  <path class="fil9" d="M80.78 50.19l0 1.09c3.31,0 4.63,-0.34 7.1,-0.55l0 -1.64c-2.92,0 -4.77,0.55 -7.1,1.09z"/>
  <path class="fil3" d="M59.23 47.46l2.44 2.22c0.57,-3.41 -0.88,-4.73 -3.41,-5.17l0.98 2.95z"/>
  <polygon class="fil3" points="45.73,44.69 44.68,48.14 46.58,48.04 48.82,43.51 "/>
 </g>
</svg>
