<?xml version="1.0" encoding="UTF-8"?>
<!DOCTYPE svg PUBLIC "-//W3C//DTD SVG 1.1//EN" "http://www.w3.org/Graphics/SVG/1.1/DTD/svg11.dtd">
<!-- Creator: CorelDRAW 2018 (64 Bit Versión de evaluación) -->
<svg xmlns="http://www.w3.org/2000/svg" xml:space="preserve" width="115.472mm" height="86.6864mm" version="1.1" style="shape-rendering:geometricPrecision; text-rendering:geometricPrecision; image-rendering:optimizeQuality; fill-rule:evenodd; clip-rule:evenodd"
viewBox="0 0 19465.75 14613.26"
 xmlns:xlink="http://www.w3.org/1999/xlink">
 <defs>
  <style type="text/css">
   <![CDATA[
    .str0 {stroke:white;stroke-width:337.15;stroke-miterlimit:22.9256;stroke-opacity:0.850980}
    .fil35 {fill:none}
    .fil1 {fill:none}
    .fil4 {fill:#606161}
    .fil20 {fill:#68E1FD}
    .fil2 {fill:#68E1FD;fill-opacity:0.239216}
    .fil3 {fill:#68E1FD;fill-opacity:0.549020}
    .fil0 {fill:#68E1FD;fill-opacity:0.639216}
    .fil8 {fill:url(#id0)}
    .fil34 {fill:url(#id1)}
    .fil13 {fill:url(#id2)}
    .fil30 {fill:url(#id3)}
    .fil10 {fill:url(#id4)}
    .fil9 {fill:url(#id5)}
    .fil28 {fill:url(#id6)}
    .fil12 {fill:url(#id7)}
    .fil27 {fill:url(#id8)}
    .fil5 {fill:url(#id9)}
    .fil6 {fill:url(#id10)}
    .fil17 {fill:url(#id11)}
    .fil16 {fill:url(#id12)}
    .fil33 {fill:url(#id13)}
    .fil19 {fill:url(#id14)}
    .fil24 {fill:url(#id15)}
    .fil14 {fill:url(#id16)}
    .fil21 {fill:url(#id17)}
    .fil18 {fill:url(#id18)}
    .fil29 {fill:url(#id19)}
    .fil22 {fill:url(#id20)}
    .fil32 {fill:url(#id21)}
    .fil11 {fill:url(#id22)}
    .fil25 {fill:url(#id23)}
    .fil15 {fill:url(#id24)}
    .fil26 {fill:url(#id25)}
    .fil7 {fill:url(#id26)}
    .fil36 {fill:url(#id27)}
    .fil23 {fill:url(#id28)}
    .fil31 {fill:url(#id29)}
   ]]>
  </style>
  <linearGradient id="id0" gradientUnits="userSpaceOnUse" x1="100944.74" y1="-845773.46" x2="115299.5" y2="-845773.46">
   <stop offset="0" style="stop-opacity:1; stop-color:#E5C6D6"/>
   <stop offset="0.419608" style="stop-opacity:1; stop-color:#EAD4D0"/>
   <stop offset="1" style="stop-opacity:1; stop-color:#F0E9CB"/>
  </linearGradient>
  <linearGradient id="id1" gradientUnits="userSpaceOnUse" xlink:href="#id0" x1="227025" y1="-366495.74" x2="256684.01" y2="-366495.74">
  </linearGradient>
  <linearGradient id="id2" gradientUnits="userSpaceOnUse" xlink:href="#id0" x1="155704.26" y1="-410999.97" x2="161196.52" y2="-410999.97">
  </linearGradient>
  <linearGradient id="id3" gradientUnits="userSpaceOnUse" xlink:href="#id0" x1="29172.87" y1="-47103.82" x2="29473.31" y2="-47103.82">
  </linearGradient>
  <linearGradient id="id4" gradientUnits="userSpaceOnUse" xlink:href="#id0" x1="169008.71" y1="-991992.58" x2="259000.05" y2="-991992.58">
  </linearGradient>
  <linearGradient id="id5" gradientUnits="userSpaceOnUse" xlink:href="#id0" x1="270083.64" y1="-852629.5" x2="281156.51" y2="-852629.5">
  </linearGradient>
  <linearGradient id="id6" gradientUnits="userSpaceOnUse" xlink:href="#id0" x1="183020.5" y1="-185879.05" x2="189352.81" y2="-185879.05">
  </linearGradient>
  <linearGradient id="id7" gradientUnits="userSpaceOnUse" xlink:href="#id0" x1="112190.55" y1="-412331.58" x2="117483.62" y2="-412331.58">
  </linearGradient>
  <linearGradient id="id8" gradientUnits="userSpaceOnUse" xlink:href="#id0" x1="443710.15" y1="-349009.84" x2="490585.2" y2="-349009.84">
  </linearGradient>
  <linearGradient id="id9" gradientUnits="userSpaceOnUse" x1="5194.45" y1="4085.31" x2="4937.07" y2="8788.07">
   <stop offset="0" style="stop-opacity:1; stop-color:#010101"/>
   <stop offset="0.121569" style="stop-opacity:0; stop-color:#010101"/>
   <stop offset="0.94902" style="stop-opacity:1; stop-color:#010101"/>
   <stop offset="1" style="stop-opacity:1; stop-color:#010101"/>
  </linearGradient>
  <linearGradient id="id10" gradientUnits="userSpaceOnUse" xlink:href="#id0" x1="8089.83" y1="5174.73" x2="8519.31" y2="5174.73">
  </linearGradient>
  <linearGradient id="id11" gradientUnits="userSpaceOnUse" xlink:href="#id0" x1="151469.12" y1="-453904.68" x2="157856.83" y2="-453904.68">
  </linearGradient>
  <linearGradient id="id12" gradientUnits="userSpaceOnUse" xlink:href="#id0" x1="46423.52" y1="-51418.48" x2="46771.1" y2="-51418.48">
  </linearGradient>
  <linearGradient id="id13" gradientUnits="userSpaceOnUse" xlink:href="#id0" x1="139408.5" y1="-307133.92" x2="156471.67" y2="-307133.92">
  </linearGradient>
  <linearGradient id="id14" gradientUnits="userSpaceOnUse" xlink:href="#id0" x1="217661.9" y1="-342687.94" x2="234290.95" y2="-342687.94">
  </linearGradient>
  <linearGradient id="id15" gradientUnits="userSpaceOnUse" xlink:href="#id0" x1="491513.43" y1="-268347.41" x2="505878.29" y2="-213612.77">
  </linearGradient>
  <linearGradient id="id16" gradientUnits="userSpaceOnUse" xlink:href="#id0" x1="192508" y1="-469800" x2="206359.76" y2="-469800">
  </linearGradient>
  <linearGradient id="id17" gradientUnits="userSpaceOnUse" xlink:href="#id0" x1="125053.87" y1="-164253.18" x2="128931.34" y2="-164253.18">
  </linearGradient>
  <linearGradient id="id18" gradientUnits="userSpaceOnUse" xlink:href="#id0" x1="165069.35" y1="-451924.45" x2="171457.04" y2="-451924.45">
  </linearGradient>
  <linearGradient id="id19" gradientUnits="userSpaceOnUse" xlink:href="#id0" x1="26793.64" y1="-37373.19" x2="27166.95" y2="-37373.19">
  </linearGradient>
  <linearGradient id="id20" gradientUnits="userSpaceOnUse" xlink:href="#id0" x1="298273.63" y1="-180935.37" x2="311619.93" y2="-180935.37">
  </linearGradient>
  <linearGradient id="id21" gradientUnits="userSpaceOnUse" xlink:href="#id9" x1="87931.39" y1="-52040.07" x2="88866.55" y2="-54966.15">
  </linearGradient>
  <linearGradient id="id22" gradientUnits="userSpaceOnUse" xlink:href="#id0" x1="334680.52" y1="-995888.21" x2="447677.19" y2="-995888.21">
  </linearGradient>
  <linearGradient id="id23" gradientUnits="userSpaceOnUse" xlink:href="#id0" x1="281748.03" y1="-255766.93" x2="290951.09" y2="-255766.93">
  </linearGradient>
  <linearGradient id="id24" gradientUnits="userSpaceOnUse" xlink:href="#id0" x1="49660.84" y1="-37531.31" x2="50161.98" y2="-37531.31">
  </linearGradient>
  <linearGradient id="id25" gradientUnits="userSpaceOnUse" xlink:href="#id0" x1="272665.7" y1="-319047.35" x2="294182.57" y2="-319047.35">
  </linearGradient>
  <linearGradient id="id26" gradientUnits="userSpaceOnUse" xlink:href="#id9" x1="68627.37" y1="-37473.91" x2="69310.71" y2="-44107.8">
  </linearGradient>
  <linearGradient id="id27" gradientUnits="userSpaceOnUse" xlink:href="#id0" x1="123884.36" y1="-213244.23" x2="144449.6" y2="-213244.23">
  </linearGradient>
  <linearGradient id="id28" gradientUnits="userSpaceOnUse" xlink:href="#id9" x1="278542.59" y1="-61906.09" x2="279015.34" y2="-75286.85">
  </linearGradient>
  <linearGradient id="id29" gradientUnits="userSpaceOnUse" xlink:href="#id0" x1="91725.28" y1="-150384.45" x2="94810.44" y2="-150384.45">
  </linearGradient>
 </defs>
 <g id="Capa_x0020_1">
  <metadata id="CorelCorpID_0Corel-Layer"/>
  <path class="fil0" d="M18120.45 11108.36c-521.63,991.28 -1366.8,1785.27 -2443.21,2077.52 -1343.99,363.58 -2776.55,-73.47 -4160.85,74.51 -875.13,93.09 -1707.83,418.47 -2562.81,628.5 -2625.39,646 -5706.91,42.95 -7394.07,-2068.5 -106.79,-134.09 -206.47,-274.91 -298.04,-419.81 -615.27,-976.41 -882.33,-2205.84 -420.63,-3248.04 350.84,-790.27 1042.2,-1331.53 1554.81,-2005.9 456.94,-600.13 639.39,-1178.25 804.07,-1894.27 360.65,-1564.62 1685.29,-2654.84 3164.8,-3174.61 1422.48,-498.82 2968.56,-512.62 4470.59,-397.79 1077.47,79.55 2174.56,230.44 3143.05,706.74 894.23,438.37 1637.3,1135.28 2296.02,1882.86 1313.75,1486.67 2378.49,3316.48 2439.5,5302.51 0.47,44.08 1.74,89.33 1.74,133.95 0,837.05 -204.87,1662.16 -595.11,2402.45l0.13 -0.12z"/>
  <path class="fil1 str0" d="M18668.66 11247.28c-551.02,1047.14 -1443.84,1885.91 -2580.93,2194.62 -1419.75,384.08 -2933.07,-77.61 -4395.4,78.71 -924.47,98.33 -1804.1,442.06 -2707.28,663.94 -2773.4,682.41 -6028.64,45.36 -7810.91,-2185.1 -112.81,-141.65 -218.1,-290.42 -314.83,-443.47 -649.96,-1031.45 -932.07,-2330.19 -444.35,-3431.15 370.61,-834.82 1100.95,-1406.6 1642.47,-2118.98 482.7,-633.96 675.43,-1244.66 849.39,-2001.05 380.98,-1652.84 1780.3,-2804.5 3343.22,-3353.59 1502.67,-526.94 3135.9,-541.52 4722.61,-420.21 1138.21,84.04 2297.15,243.44 3320.22,746.59 944.65,463.08 1729.61,1199.27 2425.46,1989 1387.82,1570.49 2512.58,3503.45 2577.02,5601.43 0.51,46.56 1.84,94.37 1.84,141.5 0,884.23 -216.42,1755.86 -628.65,2537.88l0.13 -0.12z"/>
  <path class="fil2" d="M18163.67 10689.63c-13,138.43 -26.52,278.45 -43.22,418.74 -521.63,991.28 -1366.8,1785.27 -2443.21,2077.52 -1343.99,363.58 -2776.55,-73.47 -4160.85,74.51 -875.13,93.09 -1707.83,418.47 -2562.81,628.5 -2625.39,646 -5706.91,42.95 -7394.07,-2068.5 -106.79,-134.1 -206.47,-274.93 -298.04,-419.82 91.23,-67.62 213.74,-119.6 371.27,-151.16 1182.49,-238.67 2752.95,114.83 3968.59,132.6 2707.94,39.26 5413.59,-42.77 8116.94,-246.07 396.2,-30.51 4427.63,-262.02 4445.4,-446.32z"/>
  <path class="fil2" d="M18163.67 10689.63c-13,138.43 -26.52,278.45 -43.22,418.74 -521.63,991.28 -1366.8,1785.27 -2443.21,2077.52 -1343.99,363.58 -2776.55,-73.47 -4160.85,74.51 -875.13,93.09 -1707.83,418.47 -2562.81,628.5 -2625.39,646 -5706.91,42.95 -7394.07,-2068.5 -106.79,-134.1 -206.47,-274.93 -298.04,-419.82 91.23,-67.62 213.74,-119.6 371.27,-151.16 1182.49,-238.67 2752.95,114.83 3968.59,132.6 2707.94,39.26 5413.59,-42.77 8116.94,-246.07 396.2,-30.51 4427.63,-262.02 4445.4,-446.32z"/>
  <path class="fil3" d="M4091.56 12575.93c842.51,89.36 1681.04,-175.82 2527.8,-208.7 829.26,-32.08 1648.96,159.12 2473.97,247.42 625.86,67.09 1256.21,75.05 1885.51,83.01l3531.03 44.28c197.84,2.65 403.62,3.46 583.43,-81.41 179.8,-84.86 320.61,-282.43 274.21,-474.69 -1702.79,92.82 -3409.82,35.81 -5109.96,-77.97 -863.19,-57.8 -1723.74,-130.48 -2586.68,-205.53 -754.73,-65.76 -1556.41,-217.46 -2314.06,-140.81 -587.4,59.41 -1249.32,378.69 -1769.09,634.6 127.81,125.96 328.03,161.23 503.86,179.79z"/>
  <path class="fil4" d="M5624.37 4371.45c-54.45,-72.71 -127.07,-130.16 -210.3,-166.54 -83.01,-38.55 -173.58,-58.55 -265.17,-58.55 -91.59,0 -182.16,19.99 -265.2,58.51 -167.72,81.29 -282.53,242.9 -303.91,428.08 -5.56,62.05 0,124.38 -3.71,185.64 -14.58,215.34 -146.64,404.14 -199.95,613.38 -29.97,117.21 -35.01,240.79 -73.99,355.63 -29.43,87.51 -79.55,172.91 -71.86,265.19 6.86,54.16 26.75,106 57.84,150.86 117.21,183.24 350.59,306.83 556.91,237.34 56.49,-19.1 107.94,-51.45 163.89,-72.66 151.43,-57.55 319.82,-29.97 482.11,-28.91 8.4,0.4 16.93,0.69 25.4,0.69 61.26,0 122.12,-11.99 178.77,-35.15 99.86,-50.15 163,-152.44 163,-264.24 0,-9.96 -0.54,-19.96 -1.52,-29.85 -11.36,-62.9 -30.46,-124.54 -56.44,-182.94 -48.23,-130.8 -73.03,-269.32 -73.03,-408.7 0,-36.46 1.74,-73.36 5.04,-109.54 8.23,-89.11 26.52,-177.41 26.52,-266.79 0,-118.27 -82.74,-206.84 -65.24,-314.78 19.67,-127.02 7.74,-249.8 -69.17,-356.67z"/>
  <path class="fil4" d="M5629.14 4368.8c-54.58,-72.39 -126.97,-129.75 -209.98,-166.27 -83.06,-38.49 -173.65,-58.5 -265.22,-58.5 -91.59,0 -182.16,20.01 -265.19,58.48 -167.73,81.25 -282.45,242.83 -303.66,428.01 -5.83,62.05 0,124.38 -3.98,185.64 -14.31,215.34 -146.64,404.14 -199.95,613.13 -29.97,117.48 -35.01,241.06 -73.72,355.88 -29.7,87.25 -79.55,172.91 -71.86,265.19 6.56,54.35 26.47,106.32 57.82,151.16 116.94,182.99 350.32,306.83 556.91,238.67 56.49,-19.35 107.94,-51.45 163.89,-72.66 151.68,-57.55 320.09,-29.97 482.11,-28.91 8.38,0.39 16.98,0.67 25.42,0.67 61.38,0 122.23,-11.97 179.03,-35.13 99.92,-50.39 162.96,-152.8 162.96,-264.72 0,-9.81 -0.51,-19.66 -1.45,-29.4 -11.61,-63.03 -30.68,-124.71 -56.78,-183.23 -48.08,-130.8 -72.91,-269.42 -72.91,-408.9 0,-36.4 1.74,-72.93 5.06,-109.02 8.48,-89.11 26.52,-177.41 26.52,-266.79 0,-118.27 -82.74,-206.84 -65.24,-315.05 19.05,-128.35 7.38,-251.14 -69.79,-358.27z"/>
  <path class="fil5" d="M4589.86 5645.68c30.77,-77.97 81.41,-147.45 106.07,-227.53 30.23,-97.86 19.35,-203.13 23.08,-305.49 3.73,-102.36 26.52,-212.15 106.07,-278.45 62.05,-50.91 146.39,-63.91 226.47,-69.49 110.05,-7.42 225.42,-3.19 322.47,48.8 153.54,82.21 226.47,266.79 236.02,440.74 5.31,94.15 -4.25,190.14 15.91,282.43 9.27,28.57 14.01,58.45 14.01,88.49 0,5.23 -0.13,10.54 -0.42,15.73 -7.7,33.24 -24.34,63.81 -48.03,88.33 -166.27,196.78 -422.18,284.02 -671.99,305.76 -79.55,6.89 -250.61,36.06 -318.22,-18.04 -83.29,-70.3 -45.63,-284.83 -11.43,-371.29z"/>
  <path class="fil6" d="M5131.37 5557.38c1.85,-31.56 -30.5,-179.01 -30.5,-210.57 0,-73.2 71.59,-28.12 138.69,-57.28 67.09,-29.16 195.97,-38.18 204.2,34.2 20.41,181.93 5.31,247.69 43.76,289.33 34.47,37.39 45.62,82.47 13.27,121.73 -31.27,40.37 -75.79,68.54 -125.66,79.55 -56.74,10.6 -114.29,-9.29 -168.66,-28.91 -39.24,-14.06 -117.75,-41.91 -127.81,-90.17 -10.06,-48.26 49.27,-85.91 52.71,-137.88z"/>
  <path class="fil7" d="M5107.25 5405.95c0,0 26.52,153.02 152.22,170.78 21.04,3.94 42.43,5.93 63.82,5.93 46.7,0 92.92,-9.42 135.87,-27.63l4.77 -185.64 -356.69 36.55z"/>
  <path class="fil8" d="M4823.23 11289.49c16.71,258.04 32.35,471.24 61.26,583.43 18.29,70.01 64.7,143.21 136.04,155.66 5.23,0.54 10.5,0.83 15.76,0.83 45.82,0 89.09,-21.41 116.86,-57.86 30.09,-40.69 51.28,-87.39 62.05,-136.85 53.03,-193.86 14.58,-1177.71 101.3,-1577.35 1.62,-7.52 2.43,-15.22 2.43,-22.91 0,-17.68 -4.3,-35.15 -12.51,-50.81 -9.32,-15.88 -22,-29.57 -37.12,-40.05 -119.07,-91.23 -517.39,-165.47 -563.53,46.68 -28.66,129.69 107.11,941.45 117.46,1099.23z"/>
  <path class="fil9" d="M5943.39 11872.65c-24.39,68.16 -64.7,143.21 -136.04,155.66 -5.18,0.54 -10.45,0.83 -15.71,0.83 -45.82,0 -89.09,-21.41 -116.86,-57.86 -30.09,-40.69 -51.28,-87.39 -62.05,-136.85 -53.03,-193.86 -60.2,-397.79 -67.09,-597.74l-34.47 -979.61c-0.66,-5.63 -0.98,-11.33 -0.98,-17.01 0,-19.45 3.86,-38.76 11.33,-56.71 9.32,-15.88 22,-29.57 37.12,-40.05 119.07,-91.23 439.16,-195.97 485.3,16.18 27.82,129.96 -14.35,1469.71 -100.54,1713.15z"/>
  <path class="fil10" d="M4899.07 5673.53c-96.26,51.18 -181.66,106.07 -243.98,195.18 -49.43,75.29 -90.81,156.24 -122.77,240.52 -337.86,817.85 -509.96,1715.26 -1004.02,2449.58 -71.26,102.95 -112.37,223.94 -118.53,349 -2.65,55.16 2.12,123.04 53.03,146.91 13.06,4.42 26.82,6.69 40.61,6.69 21.31,0 42.33,-5.43 60.97,-15.73 127.39,-56.3 224.31,-165.26 265.22,-298.38 5.45,-24.16 14.4,-47.56 26.5,-69.2 9.81,-15.12 23.6,-26.52 34.47,-42.16 45.89,-59.93 38.97,-142.94 47.99,-217.99 11.94,-98.38 53.03,-190.14 95.73,-280.04 170.23,-365.07 345.33,-727.47 525.32,-1087.25 67.01,-125.34 125.3,-257.16 173.95,-390.86 36.06,-107.4 59.68,-218.53 90.17,-327.78 103.69,-380.05 191.2,-644.45 75.32,-658.51z"/>
  <path class="fil11" d="M5637.35 5602.73c0,0 580.51,172.91 748.38,650.77 167.87,477.86 684.45,2143.55 684.45,2143.55 0,0 279.52,293.83 268.9,385.85 -10.62,92.03 -14.31,282.43 -148.25,237.09 -133.93,-45.35 -375.77,-209.76 -395.14,-335.74 -8.01,-73.31 -12.17,-147.42 -12.17,-221.29 0,-32.64 0.98,-65.76 2.46,-98.16l-680.22 -1636.76 -238.67 -300.2c0,0 -361.53,-671.83 -229.74,-825.11z"/>
  <path class="fil12" d="M7955.93 12013.21c-2.92,53.03 -6.63,108.46 18.29,154.87 23.92,44.79 70.63,72.81 121.44,72.81 46.41,0 89.72,-23.42 115.14,-62.22 17.3,-30.02 28.62,-63.25 33.16,-97.61 37.51,-192.9 61.8,-389.82 71.43,-586.22 2.65,-54.64 0,-118.81 -44.55,-150.89 -25.76,-14.48 -54.85,-22.18 -84.41,-22.18 -7.28,0 -14.55,0.47 -21.76,1.4 -57.01,1.33 -132.6,0 -182.45,33.14 -61.26,40.31 -37.12,86.99 -31.83,154.35 7.92,96.29 11.85,193.95 11.85,290.74 0,70.63 -2.17,141.71 -6.1,211.9l-0.2 -0.08z"/>
  <path class="fil13" d="M8546.51 11986.94c3.19,53.03 6.1,108.46 36.33,151.68 25.93,36.6 67.99,58.38 112.84,58.38 52.24,0 100.05,-29.48 123.47,-76.16 13.45,-31.91 20.7,-66.15 21.22,-100.76 7.13,-97.52 10.64,-197.1 10.64,-295.18 0,-98.08 -3.51,-197.66 -10.5,-295.24 -3.71,-54.64 -14.06,-118 -62.05,-144.79 -20.82,-8.45 -42.97,-12.83 -65.34,-12.83 -13.76,0 -27.55,1.67 -40.9,4.96 -56.49,7.96 -132.6,16.18 -177.41,54.64 -56.22,47.2 -26.52,90.69 -13.27,156.73 32.8,164.28 55.58,331.13 65.21,498.43l-0.24 0.15z"/>
  <path class="fil14" d="M8946.69 9656.97c74.26,146.91 116.42,307.89 182.72,458.51 35.27,79.55 77.7,159.12 84.59,245.3 6.89,86.18 -34.2,185.64 -117.21,212.15 -12.56,3.42 -25.56,5.16 -38.6,5.16 -64.13,0 -120.85,-41.6 -140.12,-102.75 -4.69,-28.27 -7.06,-57.08 -7.06,-85.81 0,-10.52 0.39,-21.22 0.96,-31.68 -3.71,-94.4 -50.39,-180.6 -90.17,-265.19 -90.17,-194.65 -188.55,-438.37 -212.15,-653.43 -15.37,-143.73 106.07,-66.3 168.14,-9.54 69.66,64.6 127.12,141.86 168.96,227.24l-0.05 0.03z"/>
  <path class="fil4" d="M8310.23 8168.98c-108.82,54.8 -193.12,148.72 -235.97,262.76 -33.41,94.94 -33.14,197.57 -46.93,297.28 -11.58,83.6 -33.58,165.88 -64.99,244.22 -28.91,72.4 -66.82,146.39 -57.55,223.82 9.02,54.65 34.81,105.21 73.7,144.59 124.11,135.25 328.3,179.53 507.04,137.1 41.45,-8.16 80.73,-25.44 114.83,-50.4 60.99,-48.8 85.13,-130.21 94.4,-207.65 9.27,-77.44 8.23,-156.99 33.14,-230.98 19.81,-51.43 45.35,-100.77 75.61,-146.9 43.59,-73.43 84,-150.2 119.74,-227.59 14.4,-28.47 25.32,-58.85 32.18,-90.1 1.74,-11.78 2.61,-23.77 2.61,-35.69 0,-81.05 -39.87,-156.99 -106.56,-203 -43.76,-31.29 -95.46,-49.33 -141.35,-77.17 -30.5,-18.56 -58.34,-41.37 -89.9,-58.07 -89.9,-46.63 -225.42,-27.01 -310.01,17.8z"/>
  <path class="fil15" d="M9768.78 8387.5c-10.15,8.07 -16.07,20.36 -16.07,33.34 0,1.16 0.05,2.34 0.15,3.51 1.28,13.99 6.42,27.41 14.83,38.71 15.51,22.59 37.68,39.83 63.38,49.33 4.32,2.36 9.15,3.61 14.06,3.61 4.91,0 9.74,-1.25 14.06,-3.61 4.3,-4.26 7.01,-9.88 7.67,-15.91 0.71,-4.62 1.05,-9.34 1.05,-14.03 0,-13.42 -2.78,-26.7 -8.18,-38.99 -11.41,-32.08 -49.6,-85.13 -90.96,-55.95z"/>
  <path class="fil16" d="M10542.87 8294.15c8.41,-9.88 20.73,-15.58 33.72,-15.58 2.11,0 4.25,0.15 6.34,0.46 11.02,3.89 19.52,12.88 22.77,24.12 2.01,7.59 3.03,15.42 3.03,23.26 0,3.56 -0.22,7.15 -0.62,10.69 0,0.03 0,0.07 0,0.08 0,26.94 -7.23,53.4 -20.95,76.57 -11.68,15 -25.67,28.17 -41.39,38.96 -3.37,3.05 -7.64,5.01 -12.19,5.56 -10.08,0 -14.85,-11.94 -16.18,-21.75 -6.09,-47.17 -11.65,-105.78 25.47,-142.38z"/>
  <path class="fil17" d="M9768.78 11255.54l-67.89 973.51c0,0 111.38,48.26 179.26,19.35 67.89,-28.91 232.31,-1002.42 232.31,-1002.42l-343.69 9.56z"/>
  <path class="fil18" d="M10795.6 11202.24l67.62 973.51c0,0 -111.38,48.26 -179.01,19.35 -67.63,-28.91 -232.57,-1002.42 -232.57,-1002.42l343.96 9.56z"/>
  <path class="fil4" d="M9713.88 10576.65c0,0 -46.68,654.75 -12.73,693.47 33.95,38.72 440.74,9.81 440.74,9.81l135.52 -329.36 135.52 363.05c0,0 397.79,0 416.62,-28.91 18.83,-28.91 -5.83,-808.04 -83.01,-842.24 -77.17,-34.2 -1032.66,134.19 -1032.66,134.19z"/>
  <path class="fil19" d="M8971.08 10198.5c-31.81,43.69 -55.65,92.92 -70.23,145.03 -3.46,12.93 -5.23,26.33 -5.23,39.72 0,41.05 16.4,80.41 45.52,109.32 30.61,22.79 67.78,35.11 105.95,35.11 4.99,0 10.03,-0.22 14.99,-0.62 53.03,0 111.38,-16.98 136.04,-63.64 10.82,-30.16 17.75,-61.73 20.38,-93.64 18.83,-89.9 98.38,-151.68 163.1,-217.19 41.52,-42.04 78.67,-88.62 110.37,-138.42 47.2,-74.51 83.28,-164.16 62.05,-249.54 -15.8,-60.15 -63.05,-107.03 -123.33,-122.27 -80.88,-16.18 -112.71,53.03 -155.93,110.32 -109.29,142.97 -206.61,294.4 -303.67,445.83z"/>
  <path class="fil20" d="M10099.21 8880.24c-136.31,11.94 -280.04,26.52 -390.1,108.46 -64.68,52.11 -118.26,117.11 -156.98,190.61 -93.61,160.7 -151.16,281.89 -238.67,446.05 -46.68,87.78 248.75,263.06 248.75,263.06 33.06,-15.86 59.2,-43.34 73.47,-77.14 18.56,241.32 42.7,465.67 61.26,707.01 -0.05,0.67 -0.07,1.42 -0.07,2.11 0,19.96 5.83,39.53 16.74,56.24 22.02,26.52 63.38,24.39 97.86,19.62l858.96 -123.3c2.9,0.29 5.85,0.44 8.78,0.44 48.18,0 87.25,-39.08 87.25,-87.25 0,-6.47 -0.72,-12.95 -2.16,-19.27l10.35 -662.98c-0.15,-5.65 -0.29,-11.63 -0.29,-17.36 0,-49.27 6.73,-98.57 19.91,-145.99 19.42,-50.29 47.42,-97.18 82.45,-138.18 59.14,-76.38 89.36,-13.79 156.99,-82.74 13.96,-11.56 23.38,-27.76 26.53,-45.6 -1.57,-17.6 -9.39,-34.09 -22.03,-46.43 -85.65,-106.07 -51.72,-289.06 -137.64,-395.4 -205.76,104.77 -570.39,28.14 -801.38,48.03z"/>
  <path class="fil21" d="M10078.52 8862.72c-9.54,60.47 -7.42,132.6 39.78,170.51 19.27,14.41 41.59,24.44 65.24,29.15 16.35,4.4 33.28,6.66 50.25,6.66 0.93,0 1.87,-0.02 2.76,-0.02 65.51,-3.19 119.07,-58.87 140.56,-120.92 11.63,-42.82 17.57,-87.07 17.57,-131.46 0,-21.21 -1.4,-42.41 -4.03,-63.45 0,-0.24 0,-0.49 0,-0.71 0,-34.56 -6.96,-68.8 -20.41,-100.62 -27.31,-47.94 -78.27,-77.58 -133.46,-77.58 -4.84,0 -9.73,0.24 -14.53,0.69 -172.64,15.14 -124.38,163.91 -143.73,287.74z"/>
  <path class="fil4" d="M12709.48 8440.81c-63.91,199.16 -79.55,410.25 -94.15,618.69 -54.26,784.44 -98.47,1569.49 -132.59,2355.16 -12.2,277.66 44.28,643.08 -197.84,841.45 -66.82,54.64 -149.56,92.55 -199.43,163.1 -7.32,8.78 -11.85,19.61 -13,31 0,34.2 45.08,45.62 79.55,45.89 131.56,0.02 263.18,-1.21 394.89,-3.69 59.68,-1.33 128.08,-7.42 163.89,-55.16 30.5,-40.85 26.52,-96.53 30.5,-146.91 11.4,-128.35 118,-248.48 147.18,-374.19 418.74,-1801.71 470.19,-2227.6 647.85,-2553.79 76.11,159.12 159.12,550.01 174.22,726.36 35.54,405.21 109.52,716.01 129.69,1123.36 9.54,195.97 -1.85,397.79 19.1,592.7 20.95,194.91 81.94,399.64 141.35,588.72 5.45,45.72 44.23,80.17 90.31,80.17 3.57,0 7.18,-0.22 10.72,-0.64 100.51,8.66 201.26,12.96 302.02,12.96 70.2,0 141.23,-2.58 210.99,-6.46 0.98,0.13 1.85,0.15 2.71,0.15 22.27,0 44.25,-5.38 63.99,-15.66 42.16,-26.52 42.16,-92.28 15.64,-134.71 -26.52,-42.43 -71.34,-69.49 -110.86,-100.77 -134.39,-110.2 -212.42,-275.05 -212.42,-448.9 0,-17.5 0.84,-35.22 2.41,-52.58 10.5,-96.51 16.25,-194.3 16.25,-291.47 0,-7.35 0,-15.34 0,-22.69 -2.92,-130.21 -2.39,-260.69 0,-391.16 10.35,-521.89 53.03,-1043 47.99,-1564.62 -0.71,-321.15 -31.19,-643.35 -89.53,-959.06 -9.02,-45.35 -20.95,-94.15 -57.55,-122.52 -36.6,-28.37 -81.68,-28.12 -125.44,-28.12l-998.17 0c-167.26,0.05 -324.78,-3.66 -460.3,93.41z"/>
  <path class="fil20" d="M12114.13 6893.14l169.2 -540.72c58.87,-188.28 120.67,-381.88 246.63,-533.83 191.2,-230.19 495.9,-325.93 782.85,-410.52 46.56,-13.76 95.04,-20.8 143.66,-20.8 20.82,0 41.76,1.3 62.39,3.83 238.67,30.23 551.87,-36.6 787.89,98.13 136.04,77.7 228.86,212.15 310.28,344.75 476.5,784.77 728.5,1686.69 728.5,2605.16 0,42.92 -1.23,86.45 -1.84,128.76 -1.33,47.74 -6.1,101.57 -43.49,131 -19.72,13.69 -42.36,22.76 -66.1,26.72 -54.37,13.27 -149.83,-21.75 -232.57,-41.91 -71.16,-17.75 -122.79,-79.35 -127.83,-152.49 -15.37,-220.11 8.48,-388.25 -37.66,-633.27 -71.34,-379.48 -159.12,-771.98 -397.79,-1074.82l26.52 1181.95c2.12,96.53 3.98,195.45 -26.52,287.2 -53.03,164.95 -205.26,284.29 -371.27,338.11 -166.01,53.83 -342.9,50.66 -515.79,36.06 -174.43,-14.62 -350.05,-41.6 -521.25,-79.37 -140.02,-30.5 -291.7,-76.63 -371.27,-194.91 -61.53,-89.36 -71.07,-203.93 -70.8,-312.39 1.4,-179.87 25.52,-358.73 71.41,-532.33 68.16,-260.96 181.66,-554.24 39.24,-783.37 -164.68,238.67 -228.34,530.37 -255.65,819.7 -15.12,160.97 -189.61,678.62 -393.81,702.22 -12.83,1.53 -25.83,2.43 -38.82,2.43 -90.96,0 -177.19,-40.85 -234.79,-111.23 -98.38,-128.08 -48.26,-281.64 1.33,-417.68 126.79,-346.86 227.29,-514.21 337.35,-866.38z"/>
  <path class="fil22" d="M13868.1 5682.82c-25.08,55.71 -60.59,106.32 -104.48,148.8 -26.42,30.07 -64.55,47.32 -104.6,47.32 -7.87,0 -15.75,-0.66 -23.48,-1.99 -132.6,-11.14 -247.69,-106.07 -318.22,-220.11 -10.92,-16.3 -19.37,-34.24 -24.95,-53.05 -0.78,-7.81 -1.18,-15.68 -1.18,-23.53 0,-29.62 5.66,-59 16.59,-86.51 16.32,-72.1 25.32,-146.19 26.5,-220.14l0 0c0,-10.87 -1.33,-23.33 -1.33,-37.12 -2.65,-38.45 -3.98,-81.15 16.44,-111.38 50.91,-82.74 214.8,-92.28 295.95,-74.26 62.42,10.3 117.6,46.83 151.45,100.27 12.88,26.64 19.91,55.82 20.41,85.38 1.01,18.21 1.58,36.73 1.58,55.04 0,18.31 -0.57,36.83 -1.62,55.02 -0.37,7.06 -0.62,14.26 -0.62,21.34 0,55.19 12.95,109.71 37.76,159 6.09,9.25 11.75,19.02 16.72,28.91 4.92,7.08 8.63,15 10.87,23.33 2.14,10.5 3.25,21.29 3.25,32.03 0,24.88 -5.87,49.46 -17.06,71.66l0.02 -0.02z"/>
  <path class="fil23" d="M13872.35 5558.97c0,0 -121.19,53.03 -326.18,13.79 -160.97,-31.56 -200.76,-217.19 -210.57,-299.93l0 0c-1.48,-12.24 -2.41,-24.76 -2.65,-37.12l485.55 0c1.01,18.21 1.58,36.73 1.58,55.04 0,18.31 -0.57,36.83 -1.62,55.02 -0.35,7.06 -0.61,14.26 -0.61,21.34 0,55.19 12.95,109.71 37.76,159 6.09,9.25 11.75,19.02 16.72,28.91l0 3.94z"/>
  <path class="fil24" d="M13050.25 4703.21c21.21,163.62 66.57,329.09 169.2,458.26 102.63,129.16 271.02,215.07 433.06,183.78 47.76,-10.77 94.22,-26.97 138.4,-48.01 25.76,-9.51 49.76,-23.43 70.8,-41.1 21.81,-23.77 38.79,-51.67 49.88,-81.96 29.82,-63.32 55.16,-128.81 75.32,-195.7 20.03,-81.41 32.74,-164.8 37.37,-248.51 4.87,-40.78 7.48,-82.03 7.48,-123.14 0,-41.12 -2.61,-82.37 -7.48,-123.13 -19.29,-116.62 -76.3,-223.92 -162.27,-305 -15.36,-15.83 -33.29,-28.93 -53.05,-38.72 -26.05,-9.9 -53.79,-15.17 -81.69,-15.41 -38.94,-3.76 -78.42,-5.68 -117.6,-5.68 -47.49,0 -95.28,2.82 -142.33,8.31 -86.63,10.65 -168.81,45.62 -236.5,100.79 -65.37,62.36 -113.64,140.76 -139.75,227.27 -14.06,40.04 -26.52,79.55 -40.85,120.13 -14.33,40.58 -5.56,85.65 0,127.83z"/>
  <path class="fil4" d="M12957.7 4230.64c-0.13,-4.97 -0.25,-10.28 -0.25,-15.34 0,-32.47 3.12,-64.95 9.24,-96.8 1.96,-16.44 10.49,-31.39 23.63,-41.4 8.46,-4 17.38,-7.05 26.5,-9.04 45.35,-13.52 72.4,-58.07 99.98,-96.53 113.59,-156.49 295.46,-249.27 488.92,-249.27 136.23,0 268.61,46.17 375.33,130.76 31.3,23.21 58.31,51.9 79.55,84.57 24.14,39.24 36.06,85.38 63.11,122.79 30.77,42.7 79.55,70.8 109,114.29 43.22,63.38 39.51,148.77 14.85,221.44 -24.66,72.67 -66.82,137.64 -98.13,207.65 -31.3,70.01 -60.72,153.81 -132.6,177.95 -4.42,-12.24 -6.68,-25.2 -6.68,-38.22 0,-7.82 0.83,-15.68 2.44,-23.33 4.11,-39.75 6.34,-79.99 6.34,-120.08 0,-67.67 -5.98,-135.32 -17.95,-201.87 -0.69,-9.24 -4.43,-18.02 -10.64,-24.92 -6.66,-4.28 -14.41,-6.57 -22.32,-6.57 -1.4,0 -2.82,0.07 -4.21,0.22 -57.01,0 -113.5,9.81 -170.51,7.96 -132.6,-4.25 -256.98,-67.09 -388.25,-88.57 -17.92,-4.13 -36.33,-6.24 -54.74,-6.24 -36.08,0 -71.78,8.01 -104.37,23.45 -37.17,24.65 -67.75,58.09 -88.87,97.34 -35.96,51.23 -60.27,109.95 -71.07,171.58 -1.15,26.57 -4.1,53.27 -8.5,79.55 -15.91,64.7 -46.93,38.97 -65.76,-6.89 -17.19,-43.48 -29.67,-89.06 -36.82,-135.25 -11.75,-79.18 -17.73,-159.73 -17.73,-239.87 0,-12.96 0.2,-26.72 0.4,-39.48l0.08 0.1z"/>
  <path class="fil25" d="M14995.43 9217.81c4.08,16.32 12.09,31.46 23.31,44.02 15.49,11.73 34.42,18.11 53.86,18.11 8.7,0 17.38,-1.28 25.72,-3.79 67.78,-16.18 128.13,-55.19 170.77,-110.33 42.19,-54.8 74.78,-116.84 95.99,-182.7 18.26,-45.14 27.76,-93.42 27.87,-142.13 -2.7,-41 -13.28,-81.22 -31.03,-118.27 -36.6,-81.68 -98.65,-157.79 -184.03,-185.64 -18.02,-4.67 -36.63,-7.06 -55.26,-7.06 -100.77,0 -188.7,68.48 -213.38,166.15 -35.54,173.73 30.77,360.7 86.19,521.66z"/>
  <path class="fil26" d="M9883.6 8604.43c19.71,52.95 49.58,101.79 87.76,143.44 52.46,52.34 123.67,81.78 197.79,81.78 2.46,0 5.06,-0.07 7.48,-0.1 122.25,-3.71 230.98,-90.42 289.85,-197.57 58.87,-107.15 75.84,-232.57 81.15,-354.82 1.48,-16.55 2.29,-33.5 2.29,-50.24 0,-54.18 -8.06,-108.21 -23.79,-160.03 -43.73,-111.23 -140.74,-192.97 -257.75,-217.19 -27.17,-5.11 -54.87,-7.72 -82.57,-7.72 -90.29,0 -178.51,27.43 -252.86,78.51 -32.65,20.67 -60.86,47.79 -82.79,79.57 -27.75,50.61 -44.1,106.81 -47.74,164.41 -5.31,22.79 -8.01,46.19 -8.01,69.61 0,14.85 1.13,29.77 3.25,44.42 7.96,31.03 15.12,59.68 20.16,91.76 12.31,80.34 34.59,159.19 65.78,234.2l-0.02 -0.02z"/>
  <path class="fil4" d="M9681.01 8203.72c-41.64,-71.93 -66.49,-152.66 -72.37,-235.52 0,-30.77 3.71,-67.09 30.5,-82.47 9.96,-4.7 20.36,-8.63 30.98,-11.67 26.69,-14.3 50.3,-33.92 69.2,-57.55 48.25,-43.34 103.08,-79.18 162.09,-106.08 28.73,-16.44 59.61,-29 91.72,-37.14 17.77,-2.71 35.86,-4.1 53.84,-4.1 8.56,0 17.18,0.35 25.69,0.94 103.15,3.98 214.28,15.12 291.7,83.28 11.4,10.08 22.02,21.48 34.47,30.5 38.72,28.12 91.76,32.62 128.08,63.91 17.31,15.9 31,35.35 40.07,57.01 22.81,48.47 34.73,101.55 34.73,155.16 0,19.07 -1.52,38.18 -4.48,57 -5.66,30.14 -13.28,60.11 -22.56,89.35l-29.16 98.65c-40.83,-101.8 -84.41,-202.39 -130.73,-301.75 -58.46,22.13 -119.76,37.34 -181.91,44.79 -71.59,5.56 -146.39,-8.75 -214.28,14.85 -47.62,20.01 -90.54,49.78 -125.98,87.27 -16.98,14.56 -31.61,31.79 -43.22,50.89 -33.68,61.53 0,137.37 -29.7,197.84 -26.52,-7.16 -56.74,-68.16 -72.66,-90.69 -23.77,-33.48 -46.05,-68.64 -66,-104.52l-0.03 0.05z"/>
  <path class="fil27" d="M11227.32 8707.58c0,0 -246.9,130.75 -329.36,154.87 -82.47,24.12 -6.63,400.44 67.89,382.4 74.51,-18.04 576.26,-397.79 614.98,-421.12 38.72,-23.33 116.15,-77.44 116.15,-77.44 0,0 121.19,9.54 232.57,-150.1 111.38,-159.64 -5.04,-319.82 -24.39,-324.59 -19.35,-4.77 -95.21,-72.66 -143.48,-56.49 -48.26,16.17 -174.49,184.03 -174.49,184.03 0,0 -191.18,259.39 -359.86,308.44z"/>
  <path class="fil28" d="M11655.08 8520.36c2.12,50.91 7.69,104.75 38.97,144.54 24.71,31.83 62.78,50.49 103.1,50.49 43.09,0 83.43,-21.29 107.74,-56.86 29.7,-42.95 31.29,-99.44 55.16,-145.85 23.87,-46.41 73.47,-84.07 93.88,-135.25 51.72,-127.56 -102.36,-283.49 -228.59,-232.31 -149.05,60.47 -176.09,235.77 -170.26,375.25z"/>
  <path class="fil4" d="M9746.77 12128.56c-7.15,-0.66 -14.4,-1.01 -21.59,-1.01 -13.37,0 -26.77,1.13 -39.95,3.35 -14.46,4.97 -28.08,12.26 -40.29,21.49l-146.91 100.51c-21.75,14.85 -45.89,33.95 -45.89,60.2 0.29,11.68 4.4,22.98 11.72,32.1 29.16,37.66 84.86,38.45 132.6,35.81l217.72 -12.73c3.49,0.46 7.1,0.69 10.67,0.69 33.29,0 63.27,-20.23 75.72,-51.1 26.52,-45.08 75.84,-115.63 40.31,-167.08 -43.21,-61.75 -135.75,-22.24 -194.1,-22.24z"/>
  <path class="fil4" d="M10797.72 12128.56c7.16,-0.66 14.46,-1.01 21.7,-1.01 13.42,0 26.87,1.15 40.09,3.37 14.43,5.06 28.03,12.32 40.31,21.48l146.91 100.51c21.75,14.85 45.62,33.95 45.89,60.2 -0.32,11.72 -4.53,23.01 -11.94,32.1 -28.91,37.66 -84.59,38.45 -132.6,35.81l-217.72 -12.73c-3.51,0.44 -7.1,0.67 -10.64,0.67 -33.24,0 -63.17,-20.23 -75.54,-51.08 -26.52,-45.08 -76.11,-115.63 -40.58,-167.08 43.22,-61.75 135.77,-22.24 194.12,-22.24z"/>
  <path class="fil20" d="M7956.46 9717.43c-12.42,65.21 -30.41,129.8 -52.93,192.21 -74.51,228.07 -149.04,456.13 -225.67,683.39 -72.94,229.92 -162.09,459.25 -261.9,679.43 279.25,129.69 578.11,260.96 883.63,220.9 107.67,-14.06 212.15,-49.6 320.09,-63.38 107.94,-13.79 223.3,-5.04 334.67,-14.31 111.38,-9.27 226.73,-39.78 306.3,-118l-161.24 -315.05c-58.87,-115.09 -117.75,-230.44 -165.74,-350.59 -90.66,-229.04 -140.31,-473.41 -146.16,-719.55 -3.19,-127.56 5.31,-256.98 -21.48,-381.88 -9.25,-60.32 -37.07,-116.45 -79.47,-160.57 -56.49,-53.03 -137.9,-65.24 -214.28,-72.66 -110.32,-10.6 -349.8,-59.93 -446.84,10.87 -97.05,70.8 -51.21,304.18 -68.98,409.18z"/>
  <path class="fil29" d="M8127.78 8748.97c-10.91,6.56 -17.8,18.24 -18.27,31 0.02,0.3 0,0.64 0,0.94 0,12.19 3.1,24.21 9.02,34.86 11.4,21.51 29.08,39.09 50.64,50.39 4.35,2.88 9.47,4.43 14.7,4.43 3.51,0 7,-0.71 10.23,-2.06 4.25,-3.22 7.27,-7.81 8.5,-13 2.23,-7.79 3.37,-15.88 3.37,-23.99 0,-8.11 -1.15,-16.2 -3.37,-24.01 -8.26,-29.15 -35.3,-79.8 -74.81,-58.58z"/>
  <path class="fil30" d="M8821.52 8750.55c7.16,-6.78 16.64,-10.55 26.47,-10.55 3.61,0 7.22,0.51 10.69,1.52 9.25,4.55 15.69,13.38 17.23,23.58 0.57,3.93 0.88,7.91 0.88,11.87 0,6.27 -0.74,12.54 -2.21,18.64 -2.9,23.7 -12.07,46.24 -26.52,65.24 -11.8,12.12 -25.52,22.25 -40.56,29.96 -3.22,2.43 -7.15,3.73 -11.16,3.73 -0.17,0 -0.35,0 -0.52,0 -8.75,0 -11.4,-12.2 -11.67,-20.95 -1.62,-43.21 0.51,-94.93 37.37,-123.03z"/>
  <path class="fil31" d="M8294.59 9205.08c-8.48,53.03 -6.63,117.21 35.54,151.68 17.21,12.95 37.04,22.02 58.09,26.5 14.5,3.89 29.5,5.88 44.52,5.88 1.06,0 2.17,-0.02 3.24,-0.02 58.34,-2.65 106.07,-53.03 125.44,-107.4 10.28,-38.01 15.59,-77.36 15.59,-116.76 0,-19.05 -1.3,-38.1 -3.69,-56.98 0.02,0 0.02,0 0.02,0 0,-30.97 -6.24,-61.63 -18.29,-90.15 -24.46,-42.28 -69.62,-68.36 -118.48,-68.36 -4.7,0 -9.46,0.25 -14.13,0.74 -153.57,11.94 -110.35,144.27 -127.85,254.85z"/>
  <path class="fil32" d="M8435.67 9241.95c18.86,8.85 39.4,13.84 60.23,14.56 0.51,0 1.1,0.02 1.64,0.02 20.52,0 40.17,-8.23 54.57,-22.83 13.4,-18.9 20.62,-41.54 20.62,-64.72 0,-4.96 -0.32,-9.93 -0.98,-14.83 0.02,-0.86 0.03,-1.72 0.03,-2.58 0,-9.1 -1.72,-18.14 -5.07,-26.6 -6.57,-12.07 -17.19,-21.48 -29.97,-26.52 -26.2,-10.67 -54.25,-16.22 -82.55,-16.22 -1.38,0 -2.8,0.03 -4.16,0.03 -6.69,-0.19 -13.6,-0.34 -20.36,-0.34 -27.41,0 -54.91,1.84 -82.01,5.38 -36.06,4.5 -54.89,6.89 -35.54,44.82 27.04,49.92 70.84,88.86 123.58,109.81l-0.02 0z"/>
  <path class="fil33" d="M8204.14 8953.16c11.7,48.82 32.86,95.14 62.12,135.99 42.03,53.94 104.53,88.23 172.61,94.71 108.46,10.08 213.74,-54.89 277.66,-143.21 63.92,-88.32 92.03,-197.3 110.05,-304.7 7.33,-33.92 11.09,-68.73 11.09,-103.47 0,-28.3 -2.51,-56.74 -7.38,-84.57 -26.31,-103.08 -103.29,-185.92 -204.18,-219.81 -38.82,-12.37 -79.47,-18.75 -120.26,-18.75 -63.96,0 -127.06,15.54 -183.68,45.23 -30.77,14.7 -58.39,35.62 -80.87,61.26 -29.89,41.72 -50.35,89.58 -59.9,140.02 -10.96,29.82 -16.57,61.43 -16.57,93.19 0,2.34 0.07,4.75 0.1,7.08 3.46,28.12 6.89,53.03 7.69,83.28 1.97,72.12 12.69,144.05 31.57,213.75l-0.05 0z"/>
  <path class="fil4" d="M8140.76 8702.02c3.61,28.34 19.42,53.71 43.26,69.47 13.84,5.77 28.74,8.75 43.76,8.75 0.17,0 0.35,0 0.52,0 12.73,1.57 25.66,2.38 38.5,2.38 30.78,0 61.48,-4.57 90.91,-13.5 42.84,-13.72 72.37,-52.95 73.72,-97.88 -4.25,23.6 -5.04,54.37 16.71,64.18 6.2,2.44 12.85,3.71 19.52,3.71 0.3,0 0.61,0 0.91,0l95.46 4.25c7.74,0.76 15.53,1.18 23.31,1.18 18.95,0 37.86,-2.38 56.24,-7.03 26.33,-7 47.27,-27.02 55.43,-53.02 17.5,28.12 54.89,35.81 88.05,37.66 3.94,0.44 7.94,0.69 11.9,0.69 13.2,0 26.28,-2.58 38.49,-7.59 31.29,-15.91 39.78,-55.95 44.55,-90.69 4.89,-22.81 7.38,-46.19 7.38,-69.52 0,-27.26 -3.39,-54.47 -10.05,-80.87 -19.91,-47.91 -52.28,-89.78 -93.59,-121.17 -31.88,-30.23 -68.59,-55.19 -108.46,-73.72 -42.82,-15.64 -88.1,-23.72 -133.71,-23.72 -10.06,0 -20.18,0.42 -30.19,1.18 -61.4,1.9 -122.84,10.15 -182.72,24.16 -55.33,9.63 -106.98,34.57 -149.02,71.83 -46.93,47.47 -38.72,92.82 -38.45,152.48 1.03,67.65 -18.59,126.79 -2.43,196.8z"/>
  <path class="fil34" d="M7640.88 9101.39c-98.13,-109 -183.51,-232.05 -301.78,-318.22 -23.74,-20.52 -53.35,-33.26 -84.59,-36.35 -56.49,-1.33 -101.3,55.16 -106.07,111.38 -4.77,56.22 18.04,111.38 43.22,162.04 149.95,298.8 379.41,550.96 662.93,727.95 19.17,14.46 42.16,22.99 66.1,24.39 47.47,-1.58 76.11,-53.03 89.63,-98.13 15.61,-53.66 23.62,-109.44 23.62,-165.37 0,-17.68 -0.79,-35.5 -2.38,-53.12 -7.96,-88.32 -9.81,-110.86 -85.13,-139.23 -118.05,-45.25 -223.25,-119.39 -305.48,-215.37l-0.07 0.03z"/>
  <path class="fil4" d="M7897.05 12120.07c-40.71,30.56 -80.04,63.77 -117.16,98.68 -17.77,14.85 -37.66,32.08 -37.66,55.16 1.23,17.99 12.07,34 28.35,41.86 16.05,7.52 33.48,11.85 51.18,12.71 33.6,3.37 67.84,5.11 101.72,5.11 50.25,0 100.89,-3.84 150.52,-11.18 22.94,-2.71 45.57,-8.45 67.06,-16.99 39.89,-19.66 71.58,-52.87 89.38,-93.61 97.81,-209.22 -229.95,-160.96 -333.39,-91.74z"/>
  <path class="fil4" d="M8867.12 12120.07c40.83,30.61 80.78,63.74 118.09,98.6 17.5,14.85 37.39,32.08 37.39,55.16 -1.18,18.12 -12.05,34.15 -28.42,41.92 -16.03,7.57 -33.46,11.9 -51.16,12.73 -33.61,3.37 -67.85,5.11 -101.74,5.11 -50.25,0 -100.89,-3.84 -150.52,-11.18 -22.93,-2.71 -45.55,-8.45 -67.04,-16.99 -39.83,-19.76 -71.51,-52.9 -89.38,-93.59 -98.15,-209.24 229.63,-160.97 332.79,-91.76z"/>
  <path class="fil20" d="M4899.07 5673.53c5.6,42.48 8.36,85.4 8.36,128.19 0,140.42 -30.01,279.4 -87.86,407.28 -35.06,66.76 -66.67,136.61 -93.48,207.16 -95.46,304.43 124.11,636.46 49.06,945.93 -212.15,871.69 -606.76,1704.39 -638.31,2600.72 -0.51,4.64 -0.83,9.44 -0.83,14.21 0,17.7 4.23,35.2 12.32,50.93 18.12,21.38 43.37,35.5 71.07,39.77 556.91,151.95 1140.32,298.6 1701.99,172.37 252.46,-56.74 489.55,-166.54 724.24,-275.54 53.03,-24.93 112.44,-55.43 132.6,-111.38 4.62,-17.92 6.98,-36.43 6.98,-54.97 0,-13.64 -1.28,-27.34 -3.81,-40.74 -35.81,-305.76 -87.78,-612.07 -198.09,-899.52 -116.94,-304.43 -296.49,-579.97 -439.43,-873.01 -142.94,-293.04 -250.87,-618.17 -207.65,-941.43 28.64,-214.55 120.92,-440.49 31.56,-636.46 -30.77,-67.62 -79.55,-124.38 -121.98,-185.64 -85.3,-127.02 -135.75,-274.69 -145.58,-427.42 -4.5,-68.95 -6.1,-150.1 -62.59,-190.14 -70.28,-49.33 -165.47,3.46 -231.25,58.61 -65.78,55.16 -149.31,118 -228.59,85.38 -41.1,-16.98 -67.89,-56.22 -101.57,-85.38 -33.68,-29.16 -142.68,-17.3 -177.16,11.08z"/>
  <line class="fil35" x1="4872.29" y1="11840.82" x2="4858.5" y2= "11860.71" />
  <path class="fil4" d="M4938.59 11867.08c-8.18,-3.91 -17.11,-5.93 -26.18,-5.93 -6.41,0 -12.79,1.01 -18.88,3 -16.44,8.23 -20.68,28.91 -25.19,46.41 -26.38,87.98 -83.9,163.43 -161.75,212.15 -35.67,21.34 -69.82,45.73 -101.6,72.42 -30.83,26.16 -48.62,64.6 -48.62,105.07 0,1.74 0.05,3.51 0.1,5.23 0.22,4.25 1.6,8.38 3.98,11.92 4.48,3.94 10.27,6.12 16.25,6.12 0.32,0 0.66,0 0.98,-0.02 57.67,3.41 115.93,5.45 173.85,5.45 47.08,0 94.5,-1.35 141.25,-3.73 106.07,-3.46 217.72,-8.75 307.1,-66.03 10.37,-6.17 19.42,-14.58 26.48,-24.53 7.97,-15.22 12.17,-32.18 12.17,-49.38 0,-3.52 -0.19,-7.06 -0.54,-10.55l0 -180.87c0,-31.56 17.25,-131 -13.79,-147.98 -31.03,-16.98 -97.32,29.16 -126.5,33.95 -16.99,2.43 -34.22,3.66 -51.4,3.66 -36.48,0 -72.91,-5.56 -107.7,-16.39l-0.02 0.02z"/>
  <path class="fil4" d="M5665.47 11801.31c81.94,25.19 174.49,37.66 250.08,-2.39 16.44,-8.75 36.33,-20.16 53.03,-10.87 6.84,4.57 12.14,11.16 15.14,18.81 26.52,53.03 15.64,115.63 35.54,170.51 23.08,63.38 81.68,106.07 138.96,141.87 22.56,11.83 42.7,28 59.15,47.47 9.12,11.26 14.11,25.3 14.11,39.8 0,10.96 -2.87,21.75 -8.29,31.27 -17.18,18.26 -41.13,28.61 -66.2,28.61 -2.06,0 -4.15,-0.08 -6.19,-0.22 -78.25,5.61 -158.17,8.75 -236.92,8.75 -56.41,0 -113.99,-1.96 -170.03,-4.7 -0.76,0.2 -1.45,0.22 -2.09,0.22 -16.49,0 -32.86,-3.15 -48.16,-9.29 -15.91,-7.42 -28.37,-20.95 -43.76,-29.43 -15.76,-6.29 -31.19,-13.79 -45.89,-22.3 -16.71,-14.87 -28.41,-34.63 -33.39,-56.46 -19.82,-63.15 -29.99,-129.01 -29.99,-195.19 0,-22.37 1.2,-44.91 3.49,-67.13 9.49,-87.47 31.78,-117.43 121.41,-89.33z"/>
  <path class="fil36" d="M5341.4 4422.63c0,0 189.61,27.85 217.72,200.76 28.1,172.91 66.82,769.06 -167.6,848.61 -234.42,79.55 -457.72,-195.45 -502.27,-307.1 -44.55,-111.65 -195.43,-826.07 452.15,-742.27z"/>
  <g>
   <path class="fil4" d="M4804.4 4915.36c12.73,-50.12 68.95,-73.47 117.75,-91.49 73.33,-23.89 141.62,-61.45 201.03,-110.57 59.9,-50.12 95.16,-123.77 96.54,-201.82 12.37,45.55 44.93,82.97 88.3,101.57 41.37,21.21 86.99,33.14 127.56,55.95 49.04,28.12 88.05,71.05 111.4,122.52 3.35,11.21 10.35,21.02 19.88,27.85 21.75,11.4 44.55,-14.31 53.03,-37.39 7.32,-25.61 11.06,-52.17 11.06,-78.83 0,-49.73 -12.98,-98.63 -37.59,-141.82 -37.81,-65.86 -84.74,-126.57 -138.72,-180.04 -26.28,-31.03 -57.28,-57.92 -91.72,-79.6 -39.8,-20.03 -83.83,-30.5 -128.44,-30.5 -19.74,0 -39.51,2.06 -58.78,6.1 -238.47,39.08 -413.58,245.14 -413.58,486.8 0,29.33 2.65,58.77 7.82,87.63l34.47 63.64zm0 0l0 0 0 0z"/>
  </g>
  <path class="fil2" d="M7857.53 4242.03c0,0 203.67,-665.89 730.61,-583.43 526.94,82.47 616.3,483.44 616.3,483.44 0,0 281.37,-735.11 1014.88,-460.9 860.01,321.41 177.68,1323.58 93.09,1390.67 -84.59,67.09 -1196.28,1124.67 -1196.28,1124.67 0,0 -1166.83,-1169.5 -1232.07,-1290.96 -65.24,-121.46 -132.32,-348.72 -26.52,-663.5z"/>
 </g>
</svg>
