<?xml version="1.0" encoding="UTF-8"?>
<!DOCTYPE svg PUBLIC "-//W3C//DTD SVG 1.1//EN" "http://www.w3.org/Graphics/SVG/1.1/DTD/svg11.dtd">
<!-- Creator: CorelDRAW 2018 (64 Bit Versión de evaluación) -->
<svg xmlns="http://www.w3.org/2000/svg" xml:space="preserve" width="34.1576mm" height="33.7569mm" version="1.1" style="shape-rendering:geometricPrecision; text-rendering:geometricPrecision; image-rendering:optimizeQuality; fill-rule:evenodd; clip-rule:evenodd"
viewBox="0 0 80.28 79.34"
 xmlns:xlink="http://www.w3.org/1999/xlink">
 <defs>
  <style type="text/css">
   <![CDATA[
    .fil4 {fill:#645FA0}
    .fil2 {fill:#7979B5}
    .fil3 {fill:#7B7BB6}
    .fil1 {fill:#7C7CB7}
    .fil0 {fill:#99A2D0}
   ]]>
  </style>
 </defs>
 <g id="Capa_x0020_1">
  <metadata id="CorelCorpID_0Corel-Layer"/>
  <g>
   <path class="fil0" d="M33.84 63.2c-0.74,-5.63 7.58,-2.94 7.8,1.37 0.27,5.28 -7.17,3.45 -7.8,-1.37zm18.75 -5.09c1.56,5.63 -4.23,8.59 -7.29,5.55 -3.67,-3.66 2.25,-8.23 7.29,-5.55zm-14.51 -5.87l0.68 -1.96c1.53,-4.37 9.99,0.42 7.63,4.52 -1.2,2.09 -5.79,2.52 -7.32,-2.58l-0.4 0.73c-0.88,1.97 -0.78,3.86 -4.29,4.68 -3.52,0.82 -6.23,-0.36 -6.61,-3.42 -1.05,-8.4 8.47,-7.03 10.31,-1.97zm25.6 -0.46l-0.08 0.25c-0.74,1.68 -1.27,2.47 -3.24,2.9 -7.47,1.63 -7.38,-6.16 -4.3,-9.21 0.94,-0.93 2.45,-1.3 3.89,-1.95 6.21,-2.8 8.11,4.78 3.73,8.01zm-41.76 -8.48c5.72,-1.95 8.11,5.85 3.11,7.37 -5.02,1.52 -9.07,-5.34 -3.11,-7.37zm14.37 -8.27c1.62,4.3 -3.89,9.2 -6.85,6.37 -2.9,-2.77 1.37,-8.48 6.85,-6.37zm5.87 1.21c-9.34,0.35 -5.14,-7.04 -4.6,-7.67 2.8,-3.28 7.2,-0.16 7.84,3.99 14.75,2.91 -2.8,17.06 -3.24,3.69zm17.42 -7.24c4.7,-3 9.25,4.84 5.06,7.41 -4.26,2.62 -8.43,-5.26 -5.06,-7.41zm-40.39 2.82c-0.2,-4.03 1.34,-7.27 6.5,-5.48 4.16,1.44 3.59,6.07 -0.65,7.67 -2.96,1.12 -1.36,1.19 -3.26,3.43 -3.2,3.77 -7.85,1.22 -6.16,-2.55 0.73,-1.64 2.01,-1.96 3.57,-3.06zm37.28 -12.7c6.15,-2.65 7.06,6.81 2.8,8.74 -4.72,2.14 -8.46,-6.3 -2.8,-8.74zm-11.71 -1.19c0,0 0,0 0,0l0 0zm6.38 -14.35c0,1.77 1.68,2.08 2.24,4.48 -0.46,0.87 -2.62,4.03 -3.59,4.03 -4.16,0 -0.47,-4.89 -3.59,-7.17l0.54 6.27c0,0.92 0.01,-0.07 -0.54,0.91 -1.34,-0.54 -1.31,-1.73 -1.35,-3.14 -1.36,1 -0.9,0.77 -0.9,3.14 -1.73,0.14 -1.45,0.45 -3.59,0.45 -0.76,-3.17 0.45,-2.31 0.45,-5.38 0,-2.95 -3.02,-4.7 -5.83,-4.93l0 1.34c5.36,1.25 3.44,3.91 2.63,7.09 -0.35,1.39 0.1,1.46 0.51,3.22l-3.05 2.78c-0.9,-1.62 -1.43,-2.17 -1.43,-4.57l-0.9 0c0,3.13 0.27,3.8 1.35,5.83 -2.08,0.56 -0.4,0.71 -2.69,0.9 -0.44,-0.91 -0.73,-2.3 -0.97,-3.55 -0.74,-3.84 1.07,-4.24 -1.26,-8.12 -0.7,-1.18 -1.01,-2.07 -1.36,-3.57l-0.9 0c0,3.46 1.19,3.18 1.83,5.81 0.61,2.5 -0.93,3.87 -0.93,6.74 0,2.53 1.14,1.56 1.35,4.03 -1.37,0.03 -1.64,0.2 -2.69,0.45 -0.04,-1.77 -0.27,-1.41 -0.34,-2.75 -0.12,-2.11 0.35,-0.49 -0.1,-2.63 -2.13,1.43 -1.08,3.63 -0.9,5.83 -1.37,0.03 -1.64,0.2 -2.69,0.45 -0.69,-1.31 -1.29,-4.36 -2.69,-4.93 -0.76,1.65 0.55,3.88 1.35,5.38 -1.21,0.1 -1.22,0.21 -2.24,0.45 -1.07,-2.03 -1.02,-3.47 -1.6,-5.57 -1.26,-4.55 -5.14,-3.23 -8.26,-2.5l0 0.9c6.27,-0.52 6.26,-1.25 7.24,5.76 0.21,1.53 0.49,1.26 0.83,2.75l-3.14 2.69c-0.47,-0.7 -0.89,-1.43 -1.44,-2.15 -0.89,-1.16 -0.39,-1.24 -2.15,-1.44 0.3,3.58 3.23,2.49 2.24,6.72 -1.56,-1.8 -0.75,-4.03 -4.04,-4.03 -0.79,0 -5.81,1.12 -6.28,1.34 1.64,2.92 4.89,-2.71 7.96,2.36 1.07,1.78 1.5,1.82 1.01,3.91l-4.93 0 0 1.34 4.48 0.45c0,4.57 -0.52,3.59 -4.93,3.59 -2.88,0 -2.69,-1.22 -2.69,-4.03l-1.35 0 0 3.59c2.07,1.39 5.86,2.02 8.52,2.24l0 3.14c-3,1.44 -5.61,-0.26 -6.28,2.24 3.72,0 3.55,-0.16 6.73,-0.9 0.05,2.02 0.51,2.37 0.9,4.03 -1.83,0.49 -2.53,2.69 -4.49,2.69 -3.29,0 -7.18,-3.71 -7.18,1.79 1.17,-0.42 1.37,-1.53 3.31,-1.14 2.16,0.43 2.76,1.14 4.77,1.14 1.1,0 2.66,-2.16 4.93,-2.69 0.35,1.33 0.18,0.73 0.9,1.79 -0.39,0.59 -4.66,4.86 -2.3,4.72 1.95,-0.11 1.89,-4.03 4.99,-3.38 -0.2,2.45 -0.03,0.43 -0.51,1.73 -0.66,1.8 -0.6,4.49 -2.06,5.56 -2.29,1.68 -5.2,0.76 -5.5,4.37 1.53,-0.13 2.9,-1.23 4.33,-1.94 1.54,-0.76 2.8,-1.36 4.19,-2.09 0,-2.36 -0.7,-6.71 2.49,-6.34 0.71,0.08 0.8,0.17 1.26,0.29 1.13,0.31 1.58,0.45 2.54,0.67 -0.99,1.88 -2.95,2.7 -3.14,4.93 1.71,-0.46 2.44,-1.95 3.63,-3.1 1.25,-1.21 -0.56,-0.69 1.75,-0.94l-1.01 3.92c-0.5,2.09 -1.44,2.35 -3.44,2.84 -2.31,0.56 -1.55,0.67 -3.17,1.76 0.14,1.72 0.44,4 2.24,4.48 0,-2.14 -0.3,-1.86 -0.45,-3.59 1.81,-1.21 4.69,-1.61 6.73,-2.69 0,-2.08 -0.26,-3.47 0.45,-4.93 1.86,1.36 1.33,2.58 2.24,4.48 -1.41,0.94 -3.6,3.94 -4.04,5.83 2.59,-0.22 2.71,-3.18 4.49,-4.48 0.35,1.33 0.18,0.73 0.9,1.79 -0.98,1.47 -1.17,0.62 -1.35,2.69 2.17,-0.58 0.52,-0.76 2.69,-1.34 0.93,1.39 1.34,1 1.79,2.69 -1.59,0.76 -2.58,0.07 -3.69,0.8 -1.5,0.99 -0.36,1.97 -1.08,3.85 -1.25,3.26 -5.05,-0.1 -5.99,3.42 1.92,0.89 0.44,0.29 2.45,-0.19 3.99,-0.96 5.17,-0.28 5.17,-5.63 0.7,-0.16 1.75,-0.36 2.52,-0.62 0.37,-0.13 0.91,-0.34 1.21,-0.58 0.81,-0.66 0.37,0.01 0.76,-1.04 2.1,0.18 2.15,0.84 4.49,0.9 -0.35,1.5 -2.99,3.67 -1.03,3.76 1.55,0.07 2.53,-2.51 2.82,-3.76l2.24 0 0 3.14c1.82,-0.48 1.35,-1.88 1.35,-3.59l2.24 0c-0.15,1.84 -0.45,1 -0.45,2.69 0,0.69 1.93,1.56 2.69,2.69 -0.93,1.27 -1.82,1.38 -3.59,1.79l0 1.34c4.2,-0.09 8.55,-4.46 2.69,-5.83 0,-2.11 0.08,-2.01 0.45,-3.59 2.56,0 1.42,-0.07 2.73,0.85 1.25,0.88 0.54,0.89 2.65,0.94 -0.57,-2.12 -0.87,-0.64 -2.24,-2.69 1.39,-1.16 3.06,0.45 4.04,0.45 1.55,0 1.74,-0.33 3.14,-0.45 1.2,2.27 1.86,3.59 4.93,3.59 1.95,0 3.43,-0.75 3.59,-2.69 -2.09,0.17 -3.12,1.56 -4.66,1.06 -2.67,-0.88 -1.23,-3.3 -3.86,-3.3 -2.25,0 -2.01,0.4 -4.04,0.45 0.95,-1.42 4.69,-3.91 6.15,-5.06 1.37,-1.06 2.03,-0.7 3.88,-1.5 1.37,-0.6 2.77,-1.38 4.32,-1.51 1.31,1.24 0.99,2.23 2.69,2.69 0,-8 -5.26,-2.66 -8.97,-1.79 0.3,-1.11 1.65,-3.36 2.24,-4.48 2,0.17 3.65,0.85 4.93,-0.9 -1.11,-0.62 -2.7,-0.45 -4.04,-0.45 0,-2.34 0.48,-2.68 0.9,-4.48 3.59,1.9 4.26,3.83 7.96,2.57 1.41,-0.48 1.52,-0.21 1.91,-1.68 -4.21,0.98 -5.32,0.85 -8.23,-2.11 -1.35,-1.37 -1.17,-0.94 -0.73,-2.82 2.5,0.06 2.43,0.84 4.93,0.9 -0.37,-1.4 -0.16,-1.06 -1.47,-1.66 -0.85,-0.39 -1.93,-0.55 -3.01,-0.58l0 -3.14c1.45,-0.34 1.97,-0.76 3.59,-0.9 0.9,1.34 1.35,2.86 3.64,2.89 1.71,0.03 5.19,-2.96 2.87,-2.46 -1.12,0.24 -1.88,1.11 -3.21,0.33 -1.63,-0.96 -1.83,-3 -3.31,-3 -1.63,0 -1.57,0.53 -3.14,0.9l0.45 -4.03 3.14 0 0 -1.34c-3.09,-0.07 -3.14,0.25 -3.14,-2.69 2.45,-0.2 1.82,-1.03 3.92,0.55 6,4.51 6.2,-0.55 6.85,-1.89l-1.35 0c-0.1,1.21 -0.21,1.22 -0.45,2.24 -5.04,0 -2.95,-3.14 -9.42,-3.14 -0.29,-1.23 -0.61,-2.35 -0.9,-3.59 1.02,-0.24 1.03,-0.35 2.24,-0.45l-3.14 -0.9c0.44,-1.66 0.45,-0.58 0.9,-2.24 3.92,0.33 4.93,1.37 4.93,-4.03l-1.35 0c-0.07,3.28 -1.47,1.79 -3.59,1.79 -1.56,0 -0.63,0.8 -2.69,1.35 -0.74,-1.1 -1.12,-1.94 -2.24,-2.69 2.58,-3.52 0.9,-1.59 -0.84,-1.63 -1.22,-0.03 -0.21,-0.17 -1.85,-0.61l0 -0.9c11.08,-0.25 1.63,-6.71 6.53,-9.16 1.71,-0.85 1.36,0.76 1.99,-1.6 -7.69,0.64 -3.45,5.43 -4.93,8.52 -0.95,0.46 -5.62,0.9 -7.18,0.9 0.58,-2.51 3.03,-3.34 2.25,-4.13 -1.1,-1.09 -3.1,2.31 -3.59,3.23 -0.98,-0.47 -1.76,-0.78 -3.14,-0.9 1.69,-3.19 5.07,-2.99 1.87,-7.24 -0.82,-1.09 -0.75,-0.91 -1.42,-2.17l0.75 -1.05c0.86,-1.1 0.89,-0.25 1.05,-2.09 -1.67,0.39 -3.59,1.71 -3.59,3.59z"/>
  </g>
  <path class="fil1" d="M38.07 52.24c-1.83,-5.05 -11.35,-6.42 -10.31,1.97 0.38,3.05 3.09,4.24 6.61,3.42 3.51,-0.82 3.41,-2.7 4.29,-4.68l0.4 -0.73c1.54,5.1 6.12,4.67 7.32,2.58 2.36,-4.1 -6.1,-8.89 -7.63,-4.52l-0.68 1.96z"/>
  <path class="fil2" d="M42.16 36.24c0.44,13.37 18,-0.77 3.24,-3.69 -0.64,-4.14 -5.04,-7.27 -7.84,-3.99 -0.54,0.63 -4.74,8.02 4.6,7.67z"/>
  <path class="fil2" d="M19.18 31.82c-1.56,1.1 -2.84,1.42 -3.57,3.06 -1.68,3.78 2.96,6.33 6.16,2.55 1.9,-2.24 0.3,-2.32 3.26,-3.43 4.25,-1.6 4.82,-6.23 0.65,-7.67 -5.17,-1.78 -6.71,1.46 -6.5,5.48z"/>
  <path class="fil3" d="M63.6 52.03c-4.51,0.02 -6.31,-2.87 -4.92,-7.18 3.86,-0.54 5.13,3.08 4.99,6.93 4.39,-3.23 2.49,-10.81 -3.73,-8.01 -1.44,0.65 -2.95,1.01 -3.89,1.95 -3.08,3.05 -3.17,10.84 4.3,9.21 1.97,-0.43 2.5,-1.21 3.24,-2.9z"/>
  <path class="fil3" d="M56.46 19.13c-5.66,2.44 -1.92,10.88 2.8,8.74 4.26,-1.93 3.35,-11.39 -2.8,-8.74z"/>
  <path class="fil1" d="M21.92 43.3c-5.96,2.04 -1.92,8.89 3.11,7.37 5,-1.52 2.61,-9.32 -3.11,-7.37z"/>
  <path class="fil3" d="M59.57 29c-3.36,2.15 0.8,10.02 5.06,7.41 4.19,-2.57 -0.36,-10.41 -5.06,-7.41z"/>
  <path class="fil1" d="M52.58 58.12c-5.04,-2.68 -10.96,1.89 -7.29,5.55 3.06,3.05 8.85,0.08 7.29,-5.55z"/>
  <path class="fil1" d="M36.28 35.03c-5.48,-2.11 -9.75,3.6 -6.85,6.37 2.96,2.83 8.47,-2.07 6.85,-6.37z"/>
  <path class="fil1" d="M33.84 63.2c0.63,4.82 8.07,6.65 7.8,1.37 -0.22,-4.31 -8.54,-7.01 -7.8,-1.37z"/>
  <path class="fil4" d="M63.6 52.03l0.08 -0.25c0.14,-3.85 -1.13,-7.46 -4.99,-6.93 -1.39,4.31 0.4,7.19 4.92,7.18z"/>
  <path class="fil2" d="M44.75 17.94c0,0 0,0 0,0z"/>
 </g>
</svg>
