<?xml version="1.0" encoding="UTF-8"?>
<!DOCTYPE svg PUBLIC "-//W3C//DTD SVG 1.1//EN" "http://www.w3.org/Graphics/SVG/1.1/DTD/svg11.dtd">
<!-- Creator: CorelDRAW 2018 (64 Bit Versión de evaluación) -->
<svg xmlns="http://www.w3.org/2000/svg" xml:space="preserve" width="30.6373mm" height="26.3915mm" version="1.1" style="shape-rendering:geometricPrecision; text-rendering:geometricPrecision; image-rendering:optimizeQuality; fill-rule:evenodd; clip-rule:evenodd"
viewBox="0 0 80.23 69.11"
 xmlns:xlink="http://www.w3.org/1999/xlink">
 <defs>
  <style type="text/css">
   <![CDATA[
    .fil3 {fill:#554832}
    .fil0 {fill:#5665AD}
    .fil2 {fill:#D0D6CB}
    .fil1 {fill:#FEFDFD}
   ]]>
  </style>
 </defs>
 <g id="Capa_x0020_1">
  <metadata id="CorelCorpID_0Corel-Layer"/>
  <path class="fil0" d="M33.62 47.02c-0.96,-0.34 -0.99,-0.29 -1.65,-0.68 -1.42,-0.84 -4.34,-3.9 -5.13,-5.04 -0.6,-0.85 -1.11,-1.72 -1.46,-2.98 2.06,0.66 0.85,0.72 2.99,2.39l1.33 0.85c0.08,0.05 0.31,0.2 0.39,0.25 2.36,1.35 4.15,1.43 7.23,1.16 4.19,-1.33 5.02,-2.8 7.65,-4.71 -1.19,3.08 -6.45,10.6 -11.34,8.77zm6.67 -14.5c0.38,-1.13 -0.56,-0.34 1.1,-1.01 0.12,-0.05 1.03,-0.28 1.2,-0.33 0.99,-0.29 1.45,-0.49 2.54,-0.59 0.77,-0.58 1.31,-0.68 2.3,-0.65 1,7.62 -8.6,8.2 -9.59,2.67 1.48,-0.5 1.76,-0.8 2.45,-0.09zm-15 -0.5l0.05 -1.48c0.94,0.22 1.68,0.48 2.62,0.75 0.27,0.08 0.95,0.24 1.17,0.35 0.72,0.34 0.5,0.1 0.78,0.73 0.93,-0.43 1.27,-0.08 2.48,0.27 -1.18,5.32 -10.53,5.25 -9.61,-2.78 3.13,0.36 1.6,0.54 2.51,2.16zm4.62 -18.14c-3.38,0.08 -4.23,4.32 -7.72,4.32 -2.48,0 -6.68,-8.27 -6.79,-13.27l-0.93 0c0,10.04 5.08,10.81 5.87,14.19 -1.29,0.3 -1.83,0.93 -2.16,2.16 -4.93,-2.61 -13.58,-8.67 -13.6,-15.11 -0,-0.65 0.08,-1.59 0.04,-2.2 -0.1,-1.58 0.26,-0.85 -0.65,-1.51 -0.71,1.27 -0.31,3.48 -0.31,4.94 0,4.91 9.88,13.49 14.2,14.5 -0.4,0.83 -0.5,1.89 -0.91,2.79 -0.55,1.19 -0.92,1.2 -1.55,2.15 -4.39,-1.02 -8.79,-2.47 -12.1,-5.49 -0.86,-0.78 -0.46,-0.87 -1.79,-0.99 0.52,2.21 3.46,3.74 5.45,4.73 2.76,1.38 5.68,1.79 7.52,2.67 -2.49,3.72 -0.93,3.12 -0.93,7.4 -9.75,0 -10.72,-3.64 -12.85,-4.14 -2.33,-0.54 1.56,2.75 5.34,4.24 1.72,0.68 5.74,1.51 7.82,0.52 -0.03,1.54 -0.6,2.59 -0.82,4.14 -0.23,1.61 0.57,2.81 1.13,3.88 -2.11,1.41 -4.05,3.1 -6.48,4.01 -1.2,0.45 -1.84,0.33 -2.16,1.54 2.03,-0.17 3.8,-1.09 5.26,-1.84 1.56,-0.81 2.82,-2.09 4.31,-3.09 0.99,1.48 2.3,2.61 2.47,4.63 -3.5,0.93 -11.17,8.18 -13.89,12.03l-2.57 3.95c-0.48,0.82 -0.59,0.79 -0.21,1.6 1.27,-0.85 5.28,-7.29 7.33,-9.34 1.56,-1.56 7.7,-6.8 9.65,-7.32 0.79,1.48 0.87,2.33 2.78,2.78 -0.23,0.98 -0.75,2.05 -1.12,3.2 -0.41,1.25 -0.7,2.52 -0.98,3.65 -0.4,1.6 -1.53,6.18 -0.99,7.35 1.23,-0.44 0.95,-1.82 1.2,-3.12l2.81 -10.46c3.69,0.08 4.11,3.07 6.48,3.7 -0.79,3.38 -5.31,11.11 -5.56,12.03 1.4,-0.12 1.58,-0.9 2.26,-2.06 0.64,-1.1 1.11,-1.75 1.62,-3.01 0.82,-2 2.12,-4.3 2.6,-6.35 2.69,0.63 3.74,-0.62 5.87,-0.62 1.98,0 3.68,0.93 5.87,0.93 0,2.09 -0.81,4.81 -0.31,5.86 0.96,-0.7 1.2,-1.96 1.43,-3.51 0.35,-2.36 -0.51,-2.54 1.16,-3.78 2.11,-1.57 3.44,-3.51 6.37,-3.51 0.05,0 1.91,1.29 2.23,1.48 2.41,1.43 5.55,2.53 8.58,2.53 -0.17,-2 -2.06,-1.19 -4.9,-2.2 -1.61,-0.57 -3.78,-1.41 -4.67,-2.74 0.85,-0.31 1.2,-1.05 1.55,-1.84 0.82,-1.81 0.95,-3.56 2.38,-5.03 0.85,-0.87 0.98,-1.12 1.62,-2.08 3.02,0.81 5.62,5.64 8.33,5.86 -0.11,-1.33 -1.79,-2.32 -3.31,-3.79l-4.1 -3c0,-1.1 0.08,-2.24 -0.12,-3.27l-0.5 -4.44c1.68,0.04 4.74,1.08 6.21,1.51 1.64,0.48 4.43,1.54 6.14,1.58 -0.13,-1.62 -0.87,-1.28 -2.47,-1.85 -1.16,-0.41 -2.22,-0.67 -3.57,-1.06 -1.22,-0.35 -2.36,-0.75 -3.67,-0.97 -3.89,-0.63 -1.38,-0.68 -2.33,-4.76 6.05,-0.13 22.2,-10.39 23.46,-15.12 -1.24,0.1 -0.99,0.26 -1.74,1.04 -4.09,4.2 -9.46,8.74 -14.97,10.96 -2.27,0.91 -4.87,1.92 -7.37,2.51 -1.6,-2.39 -1.72,-1.44 -3.4,-4.94 5.69,-1.33 12.34,-5.03 13.27,-5.24l0 -0.93c-2.51,0.21 -6.99,3.15 -9.88,4.01 -1.22,0.36 -2.64,0.72 -3.7,1.23 -0.21,-2.48 -2.45,-4.11 -4.94,-4.32 1.85,-2.75 5.09,-4.96 7.08,-7.74 0.74,-1.03 0.52,-0.12 0.64,-1.52 -1.11,0.3 -1.67,1.14 -2.4,1.92 -2.12,2.3 -4.2,4.93 -6.86,6.71 -2.55,-1.71 -3.21,-3.7 -6.79,-3.7 0.6,-2.59 3.65,-7.42 2.47,-9.87 -0.72,0.26 -0.45,0.05 -0.8,0.74 -0.06,0.11 -0.37,1.46 -0.37,1.48l-1.6 5.18c-0.34,0.91 -0.68,1.73 -0.93,2.78l-3.09 0.31c-1.77,0 -2.21,-0.49 -3.7,-0.62l-1.67 -7.59c-0.36,-1.45 -0.64,-2.34 -1.11,-3.52 -0.21,-0.53 -0.42,-1.24 -0.69,-1.78 -0.4,-0.78 -0.4,-0.91 -1.47,-1 0.12,1.39 0.6,2.01 1.05,3.27 0.99,2.8 2.6,7.86 2.66,10.61z"/>
  <path class="fil1" d="M37.32 42.97c-1.21,0.76 -2.36,0.5 -3.71,0.54l0.01 3.52c4.89,1.83 10.15,-5.69 11.34,-8.77 -2.63,1.91 -3.45,3.38 -7.65,4.71z"/>
  <path class="fil1" d="M45.13 30.6c-0.12,3.59 -3.01,4.29 -4.84,1.93 -0.69,-0.71 -0.97,-0.41 -2.45,0.09 1,5.53 10.59,4.94 9.59,-2.67 -0.99,-0.03 -1.53,0.07 -2.3,0.65z"/>
  <path class="fil1" d="M29.9 32.37c-0.85,2.1 -3.87,2.03 -4.61,-0.35 -0.91,-1.63 0.62,-1.8 -2.51,-2.16 -0.92,8.03 8.43,8.09 9.61,2.78 -1.21,-0.34 -1.55,-0.7 -2.48,-0.27z"/>
  <path class="fil2" d="M33.62 47.02l-0.01 -3.52c1.34,-0.04 2.5,0.22 3.71,-0.54 -3.08,0.27 -4.88,0.19 -7.23,-1.16 -0.08,-0.05 -0.31,-0.2 -0.39,-0.25l-1.33 -0.85c-2.13,-1.67 -0.93,-1.73 -2.99,-2.39 0.35,1.26 0.86,2.13 1.46,2.98 0.8,1.14 3.71,4.19 5.13,5.04 0.66,0.39 0.7,0.35 1.65,0.68z"/>
  <path class="fil3" d="M40.29 32.53c1.83,2.36 4.72,1.66 4.84,-1.93 -1.09,0.1 -1.55,0.3 -2.54,0.59 -0.17,0.05 -1.08,0.28 -1.2,0.33 -1.66,0.68 -0.72,-0.12 -1.1,1.01z"/>
  <path class="fil3" d="M25.29 32.02c0.74,2.38 3.77,2.44 4.61,0.35 -0.28,-0.63 -0.05,-0.39 -0.78,-0.73 -0.22,-0.11 -0.91,-0.27 -1.17,-0.35 -0.94,-0.27 -1.67,-0.53 -2.62,-0.75l-0.05 1.48z"/>
 </g>
</svg>
