<?xml version="1.0" encoding="UTF-8"?>
<!DOCTYPE svg PUBLIC "-//W3C//DTD SVG 1.1//EN" "http://www.w3.org/Graphics/SVG/1.1/DTD/svg11.dtd">
<!-- Creator: CorelDRAW 2018 (64 Bit Versión de evaluación) -->
<svg xmlns="http://www.w3.org/2000/svg" xml:space="preserve" width="21.2812mm" height="21.4148mm" version="1.1" style="shape-rendering:geometricPrecision; text-rendering:geometricPrecision; image-rendering:optimizeQuality; fill-rule:evenodd; clip-rule:evenodd"
viewBox="0 0 36.5 36.73"
 xmlns:xlink="http://www.w3.org/1999/xlink">
 <defs>
  <style type="text/css">
   <![CDATA[
    .fil0 {fill:#5C8A34}
    .fil4 {fill:#74922E}
    .fil6 {fill:#D9E5D0}
    .fil2 {fill:#E56911}
    .fil5 {fill:#F0ECEB}
    .fil1 {fill:#FCFBFA}
    .fil3 {fill:#FEFDFD}
   ]]>
  </style>
 </defs>
 <g id="Capa_x0020_1">
  <metadata id="CorelCorpID_0Corel-Layer"/>
  <path class="fil0" d="M20.29 28.23c-0.41,0.64 -0.35,0.57 -1.03,0.25 0.52,-0.33 -0.56,-0.2 0.5,-0.42 0.85,-0.18 0.28,0.05 0.53,0.17zm1.98 -0.5c-0.29,0.33 0.47,0.21 -0.57,0.43 -0.88,0.18 -0.14,0 -0.48,-0.18 0.36,-0.23 -0.37,-0.25 0.53,-0.44 1.01,-0.21 0.12,-0.04 0.52,0.19zm-7.98 0.09c-1,-0.15 -0.63,0.18 -1.05,-0.59 0.75,-0.34 0.74,-0.16 1.05,0.59zm8.87 -0.5c-0.09,-0.79 0.09,-0.65 0.85,-0.86 -0.07,0.79 0.16,0.82 -0.85,0.86zm-10.64 -0.54c-0.92,-0.17 -0.76,0.01 -1.01,-0.82 0.89,0.14 0.73,0.05 1.01,0.82zm12.26 -0.6c-0.13,-0.86 0.1,-0.97 0.89,-0.88 -0.25,0.72 -0.17,0.62 -0.89,0.88zm-13.86 -0.78c-0.84,-0.11 -0.7,0.02 -0.84,-0.85 0.89,0.04 0.8,0.09 0.84,0.85zm15.32 -0.9c-0.11,-0.27 -0.49,0.43 -0.01,-0.54 0.19,-0.38 0.2,-0.22 0.47,-0.4 0.3,0.54 0.15,1.05 -0.46,0.94zm-16.59 -1.39c0.52,0.94 -0.14,0.65 -0.16,0.69 -0.73,-0.59 -0.46,-0.58 -0.49,-1.02 0.5,0.12 0.31,-0.28 0.65,0.33zm18.12 -1.34c0.01,1.27 0.07,0.71 -0.53,1.02 -0.25,-0.69 -0.17,-0.74 0.53,-1.02zm-19.28 -0.89c0.27,0.31 0.64,0.19 0.25,1.04 -0.35,-0.15 -0.3,0.28 -0.46,-0.46 -0.26,-1.23 -0.11,-0 0.21,-0.57zm-0.67 -3.58c0.08,-0.63 0.3,-0.41 0.42,-0.5 0.38,0.58 0.4,0.41 0,1.1 -0.24,-0.11 -0.52,0.22 -0.42,-0.61zm11.13 8.11c-3.89,-0.15 -6.03,-1.16 -7.53,-3.6 -4.29,-6.99 6.32,-16.23 5.4,-5.17 -0.52,6.32 2.45,5.58 2.13,8.77zm-10.21 -10.52c0.15,0.42 0.37,-0.44 0.07,0.64 -0.22,0.82 0,0.05 -0.32,0.39 -0.63,-0.66 -0.36,-0.66 0.25,-1.03zm18.75 -0c-0.26,-0.29 -0.16,0.07 -0.34,-0.5 -0.3,-0.92 -0.07,-0.06 0.09,-0.51 1.53,1.02 0.27,0.97 0.25,1.01zm-18 -1.9c0.03,0.05 0.55,-0.23 0.16,0.63 -0.3,0.66 -0.1,0.21 -0.7,0.4 0.11,-0.91 0.02,-0.59 0.54,-1.03zm10.39 8.09c0.5,-6.13 -1.85,-4.93 -2.22,-8.98 4.01,0.34 6.19,1.11 7.73,3.75 4.05,6.95 -6.38,15.9 -5.51,5.23zm6.24 -8.95c0.7,0.13 0.49,0.07 0.8,0.82 -0.75,0.03 -0.86,-0.08 -0.8,-0.82zm-15.82 0.13c-0.05,-0.07 -0.64,0.05 -0.01,-0.68 0.27,-0.32 0.22,-0.17 0.61,-0.24 0.03,0.7 -0.14,1.03 -0.6,0.92zm15.27 -0.72c-1.82,-0.61 -0.46,-1.79 0,0zm-14.1 -0.72c0.29,-0.9 0.17,-0.73 1,-0.82 -0.18,0.92 -0,0.69 -1,0.82zm12.54 -0.83c-0.01,0.01 -0.39,1.02 -1.03,-0.58 0.64,0.07 0.61,-0.14 1.03,0.58zm-10.26 -0.97c0.97,-0.2 0.15,-0.02 0.5,0.22 -0.43,0.4 -0.31,0.62 -1.04,0.25 0.04,-0.48 -0.18,-0.32 0.55,-0.47zm7.81 0.15c-0.72,-0.2 -0.15,-0.05 -0.41,-0.42 0.4,-0.17 -0.45,-0.4 0.65,-0.1 0.77,0.21 0.12,0.07 0.39,0.35 -0.17,0.12 0.36,0.44 -0.64,0.17zm-2.01 -0.5c-0.61,-0.16 -0.11,0.04 -0.36,-0.42 0.64,-0.23 0.62,-0.37 1.03,0.25 -0.13,0.08 0.29,0.43 -0.66,0.17zm-4.46 0.08c0.01,-0.42 0.58,-0.53 1.07,-0.25 -0.28,0.42 -0.3,0.73 -1.07,0.25zm-5.42 -1c-0.1,1.08 0.14,0.47 -0.43,0.66 0,1.57 0.21,1.14 -0.54,2.05 -0.49,0.58 -0.62,0.75 -1.03,1.47 -1.28,2.21 -1.25,1.24 -3.14,1.07l-0.02 1c0.71,0.17 0.97,0.41 1.48,0.75 0,1.63 -0.19,3.93 -0.5,5.25 -0.59,0.14 -1.24,0.25 -1.72,0.5 -0.08,0.67 -0.07,0.57 -0.35,1 1.01,-0.08 1.03,-0.25 2.31,-0.25 1.5,2.24 0.54,1.1 1.33,2.67 0.8,1.56 1.18,1.21 0.42,2.9 0.21,0.12 0.47,0.28 0.67,0.43 2.2,0 1.8,0.65 3.28,1.55 0.56,0.34 0.99,0.42 1.36,0.91 0.53,0.7 0.26,0.92 0.19,1.8l0.72 0.24c1.86,-1.95 0.11,-1.08 3.53,-1 2.48,0.06 2.48,-0.16 3,1.98l1 -0.01c-0.57,-2.3 0.02,-2.14 1.82,-2.89 0.67,-0.28 1.16,-0.67 1.64,-0.88 0.94,-0.41 1.54,0 2.21,0.31 -0.11,-1.11 -0.24,-0.48 0.33,-0.68 -0.66,-1.61 -0.02,-1.55 0.75,-2.57 0.29,-0.39 0.51,-0.76 0.79,-1.21 1.07,-1.73 1.71,-1.53 4.01,-0.54 -0.13,-0.84 -0.26,-0.33 0.08,-1 -3.03,-0.93 -2.68,-1.1 -2.38,-5 0.05,-0.62 0.04,-0.6 0.25,-0.99 0.24,-0.45 -0,-0.02 0.34,-0.46l0.27 -0.33c0.03,-0.04 0.1,-0.11 0.14,-0.17l-0.17 -0.79c-1.83,-0.13 -0.91,-0.71 -2.16,-2.91 -1.4,-2.48 -0.49,-1.82 0.59,-3.3 -0.55,-0.38 -0.39,-0.01 -0.42,-0.78 -1.54,0.85 -1.36,1.88 -3.52,0.18 -0.6,-0.47 -0.81,-0.6 -1.5,-1 -0.88,-0.51 -0.98,-0.58 -1.07,-1.82l-1 -0.19c-1.26,1.09 -1.47,0.46 -3.02,0.34 -0.52,-0.04 -1.24,0.04 -1.71,-0.04 -0.95,-0.17 -0.5,-0.26 -1.37,-0.73l-0.41 0.16c-0,-0.91 -0.08,-0.24 -0.5,-0.66l0 1.25c-1.07,0.72 -1.44,0.75 -2.67,1.33 -1.58,0.74 -1.27,1.09 -2.9,0.42z"/>
  <path class="fil1" d="M17.82 24.27c-5.96,-0.23 -8.56,-6.43 -4.81,-10.51 3.1,-3.37 3.03,0.57 2.8,3.51 -0.35,4.34 0.99,4.01 2.01,7zm1.13 1.15c0.32,-3.19 -2.65,-2.45 -2.13,-8.77 0.91,-11.07 -9.69,-1.83 -5.4,5.17 1.5,2.45 3.65,3.45 7.53,3.6z"/>
  <path class="fil1" d="M18.95 13.28c5.64,0.01 8.47,6.09 4.9,10.31 -3.02,3.57 -3.22,0.04 -2.95,-3.23 0.4,-4.76 -1.19,-4.1 -1.96,-7.08zm-1.28 -1.19c0.37,4.05 2.72,2.85 2.22,8.98 -0.87,10.67 9.56,1.71 5.51,-5.23 -1.54,-2.64 -3.73,-3.41 -7.73,-3.75z"/>
  <path class="fil2" d="M15.73 22.75c-3.83,-0.96 -4.28,-7.49 -0.95,-9 0.25,1.76 -0.13,3.27 -0.13,5 0,2 0.55,2.53 1.08,4zm2.09 1.52c-1.02,-2.98 -2.36,-2.65 -2.01,-7 0.24,-2.94 0.31,-6.88 -2.8,-3.51 -3.75,4.07 -1.15,10.28 4.81,10.51z"/>
  <path class="fil2" d="M21 14.76c4.07,1.02 4.34,7.53 0.93,8.99 -0.28,-3.87 0.75,-5.63 -0.93,-8.99zm-2.05 -1.48c0.77,2.98 2.35,2.32 1.96,7.08 -0.27,3.28 -0.07,6.81 2.95,3.23 3.57,-4.23 0.74,-10.3 -4.9,-10.31z"/>
  <path class="fil3" d="M21 14.76c1.68,3.37 0.65,5.13 0.93,8.99 3.42,-1.47 3.14,-7.97 -0.93,-8.99z"/>
  <path class="fil3" d="M15.73 22.75c-0.53,-1.47 -1.08,-2 -1.08,-4 -0,-1.73 0.38,-3.24 0.13,-5 -3.32,1.51 -2.87,8.04 0.95,9z"/>
  <path class="fil4" d="M9.25 8.4c0.57,-0.19 0.33,0.42 0.43,-0.66 -0.46,-1.27 -1.33,-1.18 -1.16,-2.45 0.14,-1.09 0.31,-0.24 0.47,-1.38 0.31,-2.37 -1.9,-0.04 -3.56,1.5l-0.93 1.07c3.08,1.63 0.65,-2.18 4.64,1.8 0.02,0.02 0.07,0.08 0.11,0.11z"/>
  <path class="fil4" d="M8.17 27.24c-0.2,-0.15 -0.45,-0.3 -0.67,-0.43l-2 1.43c-0,-0 -4.75,-2.04 -2.2,0.68 0.6,0.64 0.79,0.99 1.39,1.63 1.5,1.61 0.59,1.33 1.81,1.44 0.42,-1.79 -0.47,-1.78 -0.1,-2.83 0.38,-1.08 1.21,-0.68 1.77,-1.91z"/>
  <path class="fil4" d="M31.33 15.49l0.17 0.79c0.86,0.26 1.47,-0.04 2.75,-0.04 0.67,1 0.71,1.71 2.25,1.75 -0.01,-0.64 -0.83,-5.13 -1,-5.5 -2.3,0.62 0.19,3 -4.18,3z"/>
  <path class="fil4" d="M22.25 5.67l1 0.19c0.55,-0.8 0.38,-1.9 1.24,-2.38 1.29,-0.71 2.04,0.52 2.51,-1.24 -1.24,-0.29 -2.81,-0.97 -4.09,-1.46 -0.68,-0.26 -1.57,-0.53 -1.27,0.51 0.35,1.2 2.47,1.16 0.61,4.37z"/>
  <path class="fil4" d="M26.92 29.23c0.22,0.98 1.07,1.31 1,2.21 -0.08,1.05 -1.1,1.14 -0.42,2.54 0.86,-0.23 4.12,-3.15 4.22,-3.33 1.13,-1.87 -2.06,0.59 -3.55,-1.1 -0.69,-0.78 -0.13,-0.57 -0.93,-1 -0.57,0.2 -0.44,-0.43 -0.33,0.68z"/>
  <path class="fil4" d="M15.25 4.75c0.42,0.42 0.5,-0.25 0.5,0.66l0.41 -0.16c0.15,-1.02 0.02,-0.65 -0.06,-1.37 -0.03,-0.22 -0.09,-0.18 -0.06,-0.63 0.09,-1.42 -0.16,0.63 0.07,-0.39 0.44,-1.89 1.65,-0.17 1.65,-2.86 -1.18,0.28 -4.34,0.97 -5.5,1 0.63,2.35 3,0.02 3,3.75z"/>
  <path class="fil4" d="M13.72 31.73l-0.72 -0.24 -0.49 1c-0.7,1.22 -0.48,0.65 -1.98,1.02 -0.94,0.23 -0.52,-0.05 -1.03,0.72 0.55,0.76 4.45,1.98 5.25,2 -0.04,-1.74 -0.49,-0.96 -1.15,-2.12 -0.55,-0.96 0.08,-1.15 0.12,-2.38z"/>
  <path class="fil4" d="M4.52 13.99l0.02 -1 -0.98 -0.59c-1.1,-1.13 0.47,-2.49 -1.57,-2.66 -0.37,1.57 -1.64,3.93 -1.75,5.25 2.77,-0.06 1.17,-2.42 4.27,-1z"/>
  <path class="fil4" d="M29.33 8.5c0.03,0.77 -0.14,0.4 0.42,0.78 1.73,-1.29 1.29,-0.03 4,-0.03 -0.09,-1.04 -0.1,-0.65 -0.66,-1.34 -0.36,-0.44 -0.53,-0.69 -0.9,-1.1 -1.28,-1.37 -1.14,-1.78 -2.19,-2.06 -0.89,1.85 0.83,1.86 -0.56,3.63 -0.02,0.02 -0.08,0.08 -0.11,0.12z"/>
  <path class="fil4" d="M21.25 32.7l-1 0.01 0 1.77c-1,0.67 -1.72,0.71 -1.75,2.25l5.5 -1c-0.2,-2.46 -2.5,0.19 -2.75,-3.03z"/>
  <path class="fil4" d="M3.44 21.49c0.28,-0.43 0.26,-0.33 0.35,-1l-1.78 0c-0.5,-0.94 -0.64,-1.64 -2,-1.75 0,1.99 0.6,3.73 0.75,5.5 2.42,-0.2 0.17,-2.08 2.69,-2.75z"/>
  <path class="fil4" d="M32.88 23.24c-0.34,0.67 -0.21,0.16 -0.08,1 0.58,1.06 0.23,0.32 0.48,1.72 0.19,1.09 0.14,0.83 0.97,1.28 0.52,-1.08 1.72,-4.37 1.75,-5.5 -2.17,0.18 -1.14,1.36 -3.12,1.5z"/>
  <path class="fil5" d="M9.5 23.81c0.02,-0.04 0.68,0.25 0.16,-0.69 -0.34,-0.61 -0.15,-0.21 -0.65,-0.33 0.02,0.45 -0.24,0.44 0.49,1.02z"/>
  <path class="fil6" d="M10.3 12.26c0.47,0.11 0.64,-0.22 0.6,-0.92 -0.39,0.07 -0.34,-0.08 -0.61,0.24 -0.63,0.73 -0.04,0.61 0.01,0.68z"/>
  <path class="fil6" d="M8.25 17.92c0.4,-0.69 0.38,-0.53 0,-1.1 -0.12,0.08 -0.34,-0.13 -0.42,0.5 -0.1,0.82 0.18,0.5 0.42,0.61z"/>
  <path class="fil5" d="M23.16 27.33c1.02,-0.03 0.78,-0.06 0.85,-0.86 -0.76,0.21 -0.94,0.07 -0.85,0.86z"/>
  <path class="fil5" d="M8.96 14.02c0.6,-0.18 0.39,0.26 0.7,-0.4 0.4,-0.86 -0.12,-0.58 -0.16,-0.63 -0.52,0.43 -0.43,0.12 -0.54,1.03z"/>
  <path class="fil5" d="M11.48 10.82c1,-0.12 0.82,0.11 1,-0.82 -0.83,0.09 -0.72,-0.09 -1,0.82z"/>
  <path class="fil6" d="M24.78 26.19c0.72,-0.26 0.64,-0.16 0.89,-0.88 -0.79,-0.09 -1.02,0.02 -0.89,0.88z"/>
  <path class="fil5" d="M27.5 14.89c0.02,-0.04 1.28,0.01 -0.25,-1.01 -0.16,0.45 -0.39,-0.41 -0.09,0.51 0.19,0.57 0.09,0.21 0.34,0.5z"/>
  <path class="fil5" d="M10.93 25.41c-0.04,-0.76 0.05,-0.81 -0.84,-0.85 0.14,0.87 0,0.74 0.84,0.85z"/>
  <path class="fil5" d="M21.23 27.98c0.35,0.18 -0.4,0.37 0.48,0.18 1.04,-0.22 0.28,-0.1 0.57,-0.43 -0.39,-0.23 0.49,-0.41 -0.52,-0.19 -0.9,0.19 -0.18,0.22 -0.53,0.44z"/>
  <path class="fil5" d="M24.02 9.99c-0.43,-0.72 -0.39,-0.5 -1.03,-0.58 0.65,1.6 1.02,0.58 1.03,0.58z"/>
  <path class="fil5" d="M21.17 8.75c0.26,0.37 -0.32,0.23 0.41,0.42 1,0.27 0.47,-0.05 0.64,-0.17 -0.27,-0.28 0.38,-0.14 -0.39,-0.35 -1.1,-0.3 -0.26,-0.07 -0.65,0.1z"/>
  <path class="fil5" d="M13.21 9.49c0.73,0.37 0.61,0.15 1.04,-0.25 -0.35,-0.24 0.47,-0.43 -0.5,-0.22 -0.73,0.15 -0.51,-0.01 -0.55,0.47z"/>
  <path class="fil5" d="M26.25 24.51c0.6,0.1 0.76,-0.4 0.46,-0.94 -0.27,0.19 -0.28,0.02 -0.47,0.4 -0.48,0.97 -0.1,0.27 0.01,0.54z"/>
  <path class="fil5" d="M8.5 15.93c0.32,-0.34 0.1,0.43 0.32,-0.39 0.3,-1.08 0.08,-0.23 -0.07,-0.64 -0.61,0.38 -0.88,0.37 -0.25,1.03z"/>
  <path class="fil5" d="M13.24 27.24c0.42,0.77 0.05,0.45 1.05,0.59 -0.31,-0.75 -0.3,-0.94 -1.05,-0.59z"/>
  <path class="fil5" d="M8.75 21.93c0.39,-0.85 0.02,-0.73 -0.25,-1.04 -0.32,0.57 -0.47,-0.65 -0.21,0.57 0.16,0.74 0.12,0.31 0.46,0.46z"/>
  <path class="fil5" d="M19.2 8.25c0.26,0.47 -0.25,0.26 0.36,0.42 0.95,0.25 0.53,-0.09 0.66,-0.17 -0.41,-0.62 -0.39,-0.47 -1.03,-0.25z"/>
  <path class="fil5" d="M12.52 26.79c-0.29,-0.77 -0.13,-0.68 -1.01,-0.82 0.25,0.83 0.09,0.66 1.01,0.82z"/>
  <path class="fil5" d="M27.25 22.81c0.61,-0.31 0.54,0.25 0.53,-1.02 -0.7,0.28 -0.78,0.34 -0.53,1.02z"/>
  <path class="fil5" d="M19.26 28.48c0.69,0.32 0.62,0.39 1.03,-0.25 -0.25,-0.11 0.32,-0.34 -0.53,-0.17 -1.06,0.22 0.02,0.09 -0.5,0.42z"/>
  <path class="fil5" d="M15.1 8.75c0.77,0.48 0.79,0.17 1.07,-0.25 -0.49,-0.28 -1.06,-0.17 -1.07,0.25z"/>
  <path class="fil5" d="M26.93 12.95c-0.31,-0.76 -0.1,-0.69 -0.8,-0.82 -0.06,0.74 0.05,0.85 0.8,0.82z"/>
  <path class="fil5" d="M25.58 11.54c-0.46,-1.79 -1.82,-0.61 0,0z"/>
 </g>
</svg>
